<?xml version="1.0" encoding="utf-8"?>
<!-- Generator: Adobe Illustrator 23.1.1, SVG Export Plug-In . SVG Version: 6.00 Build 0)  -->
<svg version="1.1" id="Layer_1" xmlns="http://www.w3.org/2000/svg" xmlns:xlink="http://www.w3.org/1999/xlink" x="0px" y="0px"
	 viewBox="0 0 519 390" style="enable-background:new 0 0 519 390;" xml:space="preserve">
<style type="text/css">
	.st0{fill:#E7E9EC;}
	.st1{fill:none;}
	.st2{fill:#5285EB;}
	.st3{fill:none;stroke:#5285EB;stroke-width:2;stroke-linecap:round;stroke-linejoin:round;}
	.st4{fill:none;stroke:#000000;stroke-width:5;stroke-linecap:round;stroke-linejoin:round;}
	.st5{enable-background:new    ;}
	.st6{fill:#FFFFFF;}
</style>
<g id="BG">
	<path class="st0" d="M359.1,25.6c-24.8,6.4-48,17.9-71.3,28.5s-47.4,20.6-72.8,23.5c-11.9,1.4-24.3,1.2-35.4-3.4
		c-6.5-2.7-12.4-6.7-18.1-10.7c-19-13.2-40.9-26.9-63.5-22.2c-11.7,2.5-21.8,9.7-30.5,17.7c-8.6,7.8-16.3,16.7-21.7,27
		c-12.3,23.4-11,51.5-6.9,77.6s11,52.2,8.9,78.6c-2.1,27.1-13.4,55.8-1.5,80.3c6.9,14.2,20.7,24.1,35.5,29.3s30.8,6.2,46.6,6.6
		c23.6,0.5,47.6-0.6,69.6-8.9c32.9-12.5,61.6-41,96.7-38.7c17.2,1.1,32.9,9.8,48.5,16.9c17.1,7.8,34.8,14,53.1,18.6
		c19.7,4.9,41.3,7.8,59.9-0.5c15.1-6.6,26.4-19.8,34.4-34.2c12.2-22.2,17.6-47.5,15.5-72.7c-4-46.5-25.7-87.7-26-135.2
		c-0.2-34.1-13.6-62.1-47.5-76C409.3,18.2,382.9,19.5,359.1,25.6z"/>
	<rect class="st1" width="519" height="390"/>
</g>
<g id="Layer_5">
	<rect x="236.7" y="233.8" class="st2" width="22.8" height="38.8"/>
	<line class="st3" x1="191.1" y1="78.7" x2="191.1" y2="311.3"/>
	<line class="st3" x1="213.9" y1="78.7" x2="213.9" y2="311.3"/>
	<line class="st3" x1="236.7" y1="78.7" x2="236.7" y2="311.3"/>
	<line class="st3" x1="259.5" y1="78.7" x2="259.5" y2="311.3"/>
	<line class="st3" x1="282.3" y1="78.7" x2="282.3" y2="311.3"/>
	<line class="st3" x1="305.1" y1="78.7" x2="305.1" y2="311.3"/>
	<line class="st3" x1="327.9" y1="78.7" x2="327.9" y2="311.3"/>
	<line class="st3" x1="327.9" y1="78.7" x2="191.1" y2="78.7"/>
	<line class="st3" x1="327.9" y1="117.5" x2="191.1" y2="117.5"/>
	<line class="st3" x1="327.9" y1="156.2" x2="191.1" y2="156.2"/>
	<line class="st3" x1="327.9" y1="195" x2="191.1" y2="195"/>
	<line class="st3" x1="327.9" y1="233.8" x2="191.1" y2="233.8"/>
	<line class="st3" x1="327.9" y1="272.5" x2="191.1" y2="272.5"/>
	<line class="st3" x1="327.9" y1="311.3" x2="191.1" y2="311.3"/>
</g>
<g>
	<line class="st4" x1="54.4" y1="18.1" x2="54.4" y2="371.9"/>
	<line class="st4" x1="191.1" y1="18.1" x2="191.1" y2="371.9"/>
	<line class="st4" x1="327.9" y1="18.1" x2="327.9" y2="371.9"/>
	<line class="st4" x1="493.2" y1="78.7" x2="25.8" y2="78.7"/>
	<line class="st4" x1="493.2" y1="311.3" x2="25.8" y2="311.3"/>
	<line class="st4" x1="464.6" y1="18.1" x2="464.6" y2="371.9"/>
	<path class="st2" d="M361.7,150.3v38.2c0,5.1-4.1,9.2-9.2,9.2h-94.8l-9.6,19l-9.6-19h-94.8c-5.1,0-9.2-4.1-9.2-9.2v-38.2
		c0-5.1,4.1-9.2,9.2-9.2h208.8C357.6,141.1,361.7,145.2,361.7,150.3z"/>
	<g class="st5">
		<path class="st6" d="M160.8,174.6l3.2-4.4l-0.1-0.1c-0.3,0.2-0.7,0.2-1.2,0.2c-0.8,0-1.5-0.2-2.2-0.6s-1.3-1-1.7-1.8
			c-0.4-0.8-0.7-1.6-0.7-2.5c0-1,0.3-1.9,0.8-2.7c0.5-0.8,1.2-1.4,2-1.9s1.7-0.7,2.7-0.7c1.1,0,2,0.2,2.9,0.7c0.8,0.5,1.5,1.1,2,2
			c0.5,0.8,0.7,1.7,0.7,2.7s-0.2,1.9-0.6,2.7s-0.9,1.8-1.6,2.8l-3.7,5.3L160.8,174.6z M165.3,167.1c0.5-0.5,0.8-1.1,0.8-1.8
			s-0.3-1.3-0.8-1.8c-0.5-0.5-1.1-0.7-1.8-0.7c-0.7,0-1.3,0.2-1.8,0.7s-0.8,1.1-0.8,1.8s0.3,1.3,0.8,1.8s1.1,0.7,1.8,0.7
			C164.2,167.8,164.8,167.6,165.3,167.1z"/>
		<path class="st6" d="M175.2,175.1c-1.3-0.7-2.3-1.8-3-3c-0.7-1.3-1.1-2.7-1.1-4.3s0.4-3,1.1-4.3c0.7-1.3,1.8-2.3,3-3
			c1.3-0.7,2.7-1.1,4.3-1.1c2.4,0,4.4,0.9,6,2.6l-2.1,2.1c-1-1.2-2.3-1.8-3.9-1.8c-1,0-1.9,0.2-2.7,0.7s-1.5,1.1-1.9,1.9
			c-0.5,0.8-0.7,1.8-0.7,2.9s0.2,2.1,0.7,2.9c0.5,0.8,1.1,1.5,1.9,1.9c0.8,0.5,1.7,0.7,2.7,0.7c1.7,0,3.1-0.7,4.3-2.1l2.2,2
			c-0.8,1-1.7,1.7-2.8,2.2c-1.1,0.5-2.3,0.8-3.6,0.8C177.9,176.2,176.5,175.8,175.2,175.1z"/>
		<path class="st6" d="M191.1,175.7c-0.8-0.3-1.4-0.8-2-1.4c-0.6-0.6-0.9-1.4-1.2-2.3l2.7-1c0.2,0.8,0.5,1.4,1,1.8
			c0.5,0.4,1.1,0.7,1.8,0.7s1.3-0.2,1.8-0.7c0.5-0.5,0.7-1.1,0.7-1.8c0-0.7-0.2-1.3-0.7-1.8c-0.5-0.5-1.1-0.7-1.8-0.7
			c-0.5,0-0.9,0.1-1.2,0.3c-0.4,0.2-0.7,0.4-0.9,0.8l-2.9-1.3l0.9-7.7h8.7v2.6h-6.2l-0.6,3.6l0.2,0c0.8-0.6,1.6-0.9,2.7-0.9
			c0.9,0,1.7,0.2,2.4,0.7c0.7,0.4,1.3,1,1.8,1.8c0.5,0.8,0.7,1.7,0.7,2.7c0,1-0.2,1.9-0.7,2.7c-0.5,0.8-1.1,1.4-1.9,1.9
			c-0.8,0.5-1.8,0.7-2.8,0.7C192.6,176.2,191.8,176.1,191.1,175.7z"/>
		<path class="st6" d="M201.9,159.7h3.9l4.3,11.3h0.2l4.3-11.3h3.9v16.1h-3v-7.9l0.2-2.7h-0.2l-4.1,10.6H209l-4.1-10.6h-0.2l0.2,2.7
			v7.9h-3V159.7z"/>
		<path class="st6" d="M224.1,175.6c-0.8-0.4-1.5-1-2-1.7s-0.7-1.5-0.7-2.4c0-0.8,0.2-1.6,0.7-2.2c0.4-0.7,1-1.2,1.7-1.5v-0.2
			c-0.5-0.4-1-0.8-1.3-1.4c-0.3-0.6-0.5-1.2-0.5-1.8c0-0.8,0.2-1.5,0.7-2.2c0.4-0.7,1-1.2,1.8-1.6c0.8-0.4,1.6-0.6,2.6-0.6
			c1,0,1.8,0.2,2.6,0.6c0.8,0.4,1.4,0.9,1.8,1.6c0.4,0.7,0.7,1.4,0.7,2.2c0,0.7-0.2,1.3-0.5,1.8c-0.3,0.5-0.8,1-1.3,1.4v0.2
			c0.7,0.4,1.2,0.9,1.7,1.5c0.5,0.7,0.7,1.4,0.7,2.2c0,0.9-0.2,1.7-0.7,2.4s-1.1,1.3-2,1.7c-0.8,0.4-1.8,0.6-2.9,0.6
			C225.9,176.2,224.9,176,224.1,175.6z M228.8,172.9c0.5-0.4,0.7-0.9,0.7-1.6c0-0.6-0.2-1.1-0.7-1.6s-1.1-0.6-1.9-0.6
			c-0.8,0-1.4,0.2-1.9,0.6c-0.5,0.4-0.8,0.9-0.8,1.6c0,0.7,0.2,1.2,0.7,1.6s1.1,0.6,1.9,0.6C227.7,173.5,228.4,173.3,228.8,172.9z
			 M228.5,166c0.4-0.4,0.6-0.8,0.6-1.4s-0.2-1-0.6-1.4c-0.4-0.3-0.9-0.5-1.6-0.5c-0.6,0-1.2,0.2-1.6,0.5c-0.4,0.3-0.6,0.8-0.6,1.4
			s0.2,1,0.6,1.4s1,0.5,1.6,0.5C227.6,166.5,228.1,166.4,228.5,166z"/>
	</g>
	<g class="st5">
		<path class="st6" d="M246.5,175.5c-1.1,0.5-2.3,0.7-3.5,0.7c-1.6,0-3-0.4-4.3-1.1c-1.3-0.7-2.3-1.8-3-3c-0.7-1.3-1.1-2.7-1.1-4.3
			s0.4-3,1.1-4.3c0.7-1.3,1.7-2.3,3-3.1c1.3-0.7,2.7-1.1,4.3-1.1s3,0.4,4.3,1.1c1.3,0.7,2.3,1.8,3,3.1c0.7,1.3,1.1,2.7,1.1,4.3
			c0,1.2-0.2,2.4-0.7,3.4c-0.5,1.1-1.1,2-2,2.8l1.2,1.8l-2.3,1.5L246.5,175.5z M244.8,173l-1.8-2.6l2.3-1.5l1.8,2.7
			c0.4-0.5,0.7-1,1-1.6c0.2-0.6,0.3-1.3,0.3-2c0-1.1-0.2-2-0.7-2.9c-0.5-0.8-1.1-1.5-1.9-2c-0.8-0.5-1.7-0.7-2.7-0.7
			c-1,0-1.9,0.2-2.7,0.7c-0.8,0.5-1.5,1.1-1.9,2c-0.5,0.8-0.7,1.8-0.7,2.9s0.2,2,0.7,2.9c0.5,0.8,1.1,1.5,1.9,2s1.7,0.7,2.7,0.7
			C243.6,173.3,244.2,173.2,244.8,173z"/>
	</g>
	<g class="st5">
		<path class="st6" d="M265.2,175.5c-1.1,0.5-2.3,0.7-3.5,0.7c-1.6,0-3-0.4-4.3-1.1c-1.3-0.7-2.3-1.8-3-3c-0.7-1.3-1.1-2.7-1.1-4.3
			s0.4-3,1.1-4.3c0.7-1.3,1.7-2.3,3-3.1c1.3-0.7,2.7-1.1,4.3-1.1c1.6,0,3,0.4,4.3,1.1c1.3,0.7,2.3,1.8,3,3.1
			c0.7,1.3,1.1,2.7,1.1,4.3c0,1.2-0.2,2.4-0.7,3.4s-1.1,2-2,2.8l1.2,1.8l-2.3,1.5L265.2,175.5z M263.5,173l-1.8-2.6l2.3-1.5l1.8,2.7
			c0.4-0.5,0.7-1,1-1.6c0.2-0.6,0.3-1.3,0.3-2c0-1.1-0.2-2-0.7-2.9c-0.5-0.8-1.1-1.5-1.9-2c-0.8-0.5-1.7-0.7-2.7-0.7
			s-1.9,0.2-2.7,0.7c-0.8,0.5-1.5,1.1-1.9,2c-0.5,0.8-0.7,1.8-0.7,2.9s0.2,2,0.7,2.9c0.5,0.8,1.1,1.5,1.9,2c0.8,0.5,1.7,0.7,2.7,0.7
			C262.3,173.3,262.9,173.2,263.5,173z"/>
		<path class="st6" d="M272.9,174.8l6.4-11.5l-0.1-0.1h-7.1v-2.8h10.5v2.9l-7.2,12.9L272.9,174.8z"/>
		<path class="st6" d="M295.4,171.1h-3.8v3.8h-2.6v-3.8h-3.8v-2.6h3.8v-3.8h2.6v3.8h3.8V171.1z"/>
	</g>
	<g class="st5">
		<path class="st6" d="M297.1,159.7h3.3l3.3,9.7l0.6,2h0.2l0.6-2l3.5-9.7h3.3l-5.9,16.1h-3.2L297.1,159.7z"/>
	</g>
	<g class="st5">
		<path class="st6" d="M315.5,175.6c-0.8-0.4-1.5-1-2-1.7s-0.7-1.5-0.7-2.4c0-0.8,0.2-1.6,0.7-2.2c0.4-0.7,1-1.2,1.7-1.5v-0.2
			c-0.5-0.4-1-0.8-1.3-1.4c-0.3-0.6-0.5-1.2-0.5-1.8c0-0.8,0.2-1.5,0.7-2.2c0.4-0.7,1-1.2,1.8-1.6c0.8-0.4,1.6-0.6,2.6-0.6
			c1,0,1.8,0.2,2.6,0.6s1.4,0.9,1.8,1.6s0.7,1.4,0.7,2.2c0,0.7-0.2,1.3-0.5,1.8c-0.3,0.5-0.8,1-1.3,1.4v0.2c0.7,0.4,1.2,0.9,1.7,1.5
			c0.4,0.7,0.7,1.4,0.7,2.2c0,0.9-0.2,1.7-0.7,2.4s-1.1,1.3-2,1.7c-0.8,0.4-1.8,0.6-2.9,0.6C317.3,176.2,316.3,176,315.5,175.6z
			 M320.2,172.9c0.5-0.4,0.7-0.9,0.7-1.6c0-0.6-0.2-1.1-0.7-1.6s-1.1-0.6-1.9-0.6c-0.8,0-1.4,0.2-1.9,0.6c-0.5,0.4-0.8,0.9-0.8,1.6
			c0,0.7,0.2,1.2,0.7,1.6c0.5,0.4,1.1,0.6,1.9,0.6C319.1,173.5,319.8,173.3,320.2,172.9z M319.9,166c0.4-0.4,0.6-0.8,0.6-1.4
			s-0.2-1-0.6-1.4c-0.4-0.3-0.9-0.5-1.6-0.5c-0.6,0-1.2,0.2-1.6,0.5c-0.4,0.3-0.6,0.8-0.6,1.4s0.2,1,0.6,1.4s1,0.5,1.6,0.5
			C319,166.5,319.5,166.4,319.9,166z"/>
		<path class="st6" d="M326.8,159.7h5.9c1.1,0,2,0.2,2.8,0.7c0.8,0.4,1.5,1,1.9,1.8c0.5,0.8,0.7,1.6,0.7,2.6c0,1-0.3,2-1,2.8
			s-1.5,1.4-2.5,1.7l0,0.2l4.3,6.2v0.2h-3.5l-4.2-6.1h-1.4v6.1h-3V159.7z M332.7,167c0.7,0,1.3-0.2,1.7-0.6s0.7-1,0.7-1.6
			c0-0.6-0.2-1.1-0.6-1.6s-1-0.7-1.7-0.7h-2.9v4.5H332.7z"/>
	</g>
</g>
</svg>
