<?xml version="1.0" encoding="utf-8"?>
<!-- Generator: Adobe Illustrator 23.1.1, SVG Export Plug-In . SVG Version: 6.00 Build 0)  -->
<svg version="1.1" id="Layer_1" xmlns="http://www.w3.org/2000/svg" xmlns:xlink="http://www.w3.org/1999/xlink" x="0px" y="0px"
	 viewBox="0 0 519 390" style="enable-background:new 0 0 519 390;" xml:space="preserve">
<style type="text/css">
	.st0{fill:#E7E9EC;}
	.st1{fill:none;}
	.st2{fill:#D4E2F9;}
	.st3{fill:#5285EB;}
	.st4{fill:none;stroke:#000000;stroke-width:2;stroke-linecap:round;stroke-linejoin:round;}
	.st5{enable-background:new    ;}
	.st6{fill:#FFFFFF;}
</style>
<g id="BG">
	<path class="st0" d="M454.2,65c-13.2-14.7-33.8-22.6-54.2-22.8c-27.4-0.2-53.3,12.3-80.7,13.5c-13.5,0.6-26.9-1.7-40.2-3.9
		L221.6,42c-23.1-3.9-46.8-7.8-70-4.8c-20,2.6-38.8,10.2-56.7,18.8c-14.7,7.1-29.2,15.1-40.7,26.2c-27.1,26.2-33.3,69.5-14.7,101.6
		c6.5,11.2,15.7,21,21.3,32.7c9.5,19.6,8.2,42.1,5,63.4c-2.4,15.6-5.3,33.1,4.5,46c6.7,8.7,17.9,13.3,29.1,15.2
		c32.2,5.7,64.4-6.7,95.8-15.4c9.2-2.6,18.7-4.8,28.2-4c11.4,1,21.6,6.4,32.2,10.4c17.8,6.8,36.8,10.1,55.8,12.6
		c20.1,2.7,40.6,4.6,60.7,1.7s39.9-11,53.2-25.5c6.7-7.4,11.5-16.1,16.1-24.9c15.9-30.2,30.3-62.9,27.1-96.5
		c-2.1-21.9-23.4-57-12.5-77.6c3.7-7.1,10.4-10.7,11.9-19.1C470.2,89.9,462.8,74.6,454.2,65z"/>
	<rect class="st1" width="519" height="390"/>
</g>
<g>
	<rect x="131.8" y="219.7" class="st2" width="121.6" height="15.8"/>
	<rect x="239.5" y="235.5" class="st2" width="13.5" height="110.9"/>
	<rect x="239.9" y="219.7" class="st3" width="13.5" height="15.8"/>
	<line class="st4" x1="131.8" y1="29.6" x2="131.8" y2="346.4"/>
	<line class="st4" x1="145.3" y1="29.6" x2="145.3" y2="346.4"/>
	<line class="st4" x1="158.8" y1="29.6" x2="158.8" y2="346.4"/>
	<line class="st4" x1="172.4" y1="29.6" x2="172.4" y2="346.4"/>
	<line class="st4" x1="185.9" y1="29.6" x2="185.9" y2="346.4"/>
	<line class="st4" x1="199.4" y1="29.6" x2="199.4" y2="346.4"/>
	<line class="st4" x1="212.9" y1="29.6" x2="212.9" y2="346.4"/>
	<line class="st4" x1="226.4" y1="29.6" x2="226.4" y2="346.4"/>
	<line class="st4" x1="239.9" y1="29.6" x2="239.9" y2="346.4"/>
	<line class="st4" x1="253.4" y1="29.6" x2="253.4" y2="346.4"/>
	<line class="st4" x1="267" y1="29.6" x2="267" y2="346.4"/>
	<line class="st4" x1="280.5" y1="29.6" x2="280.5" y2="346.4"/>
	<line class="st4" x1="294" y1="29.6" x2="294" y2="346.4"/>
	<line class="st4" x1="307.5" y1="29.6" x2="307.5" y2="346.4"/>
	<line class="st4" x1="321" y1="29.6" x2="321" y2="346.4"/>
	<line class="st4" x1="334.5" y1="29.6" x2="334.5" y2="346.4"/>
	<line class="st4" x1="348" y1="29.6" x2="348" y2="346.4"/>
	<line class="st4" x1="361.5" y1="29.6" x2="361.5" y2="346.4"/>
	<line class="st4" x1="375.1" y1="29.6" x2="375.1" y2="346.4"/>
	<line class="st4" x1="388.6" y1="29.6" x2="388.6" y2="346.4"/>
	<line class="st4" x1="402.1" y1="29.6" x2="402.1" y2="346.4"/>
	<line class="st4" x1="402.1" y1="29.6" x2="131.8" y2="29.6"/>
	<line class="st4" x1="402.1" y1="45.4" x2="131.8" y2="45.4"/>
	<line class="st4" x1="402.1" y1="61.2" x2="131.8" y2="61.2"/>
	<line class="st4" x1="402.1" y1="77.1" x2="131.8" y2="77.1"/>
	<line class="st4" x1="402.1" y1="92.9" x2="131.8" y2="92.9"/>
	<line class="st4" x1="402.1" y1="108.8" x2="131.8" y2="108.8"/>
	<line class="st4" x1="402.1" y1="124.6" x2="131.8" y2="124.6"/>
	<line class="st4" x1="402.1" y1="140.5" x2="131.8" y2="140.5"/>
	<line class="st4" x1="402.1" y1="156.3" x2="131.8" y2="156.3"/>
	<line class="st4" x1="402.1" y1="172.2" x2="131.8" y2="172.2"/>
	<line class="st4" x1="402.1" y1="188" x2="131.8" y2="188"/>
	<line class="st4" x1="402.1" y1="203.9" x2="131.8" y2="203.9"/>
	<line class="st4" x1="402.1" y1="219.7" x2="131.8" y2="219.7"/>
	<line class="st4" x1="402.1" y1="235.5" x2="131.8" y2="235.5"/>
	<line class="st4" x1="402.1" y1="251.4" x2="131.8" y2="251.4"/>
	<line class="st4" x1="402.1" y1="267.2" x2="131.8" y2="267.2"/>
	<line class="st4" x1="402.1" y1="283.1" x2="131.8" y2="283.1"/>
	<line class="st4" x1="402.1" y1="298.9" x2="131.8" y2="298.9"/>
	<line class="st4" x1="402.1" y1="314.8" x2="131.8" y2="314.8"/>
	<line class="st4" x1="402.1" y1="330.6" x2="131.8" y2="330.6"/>
	<line class="st4" x1="402.1" y1="346.4" x2="131.8" y2="346.4"/>
	<g class="st5">
		<path d="M119.2,342.2c1.2-1.2,2-2,2.2-2.3c0.3-0.3,0.4-0.5,0.5-0.7c0.1-0.2,0.1-0.4,0.1-0.6c0-0.2-0.1-0.4-0.3-0.6
			s-0.4-0.3-0.7-0.3c-0.3,0-0.5,0.1-0.7,0.2c-0.2,0.2-0.3,0.4-0.4,0.6l-0.9-0.4c0.1-0.2,0.2-0.4,0.3-0.6s0.4-0.4,0.7-0.5
			c0.3-0.1,0.6-0.2,1-0.2c0.4,0,0.7,0.1,1,0.2c0.3,0.2,0.5,0.4,0.7,0.6c0.2,0.3,0.2,0.6,0.2,0.9c0,0.6-0.3,1.3-1,2
			c-0.3,0.3-0.6,0.6-0.9,0.9c-0.3,0.3-0.6,0.6-0.8,0.8l0,0h2.7v0.9h-4V342.2z"/>
	</g>
	<g class="st5">
		<path d="M119.9,327c-0.4-0.3-0.7-0.7-0.8-1.2l0.9-0.4c0.1,0.3,0.2,0.6,0.4,0.7s0.5,0.3,0.8,0.3c0.3,0,0.6-0.1,0.8-0.3
			c0.2-0.2,0.3-0.4,0.3-0.7s-0.1-0.5-0.3-0.7c-0.2-0.2-0.5-0.3-0.9-0.3h-0.5v-0.9h0.5c0.3,0,0.5-0.1,0.8-0.2s0.3-0.4,0.3-0.7
			c0-0.2-0.1-0.4-0.3-0.6c-0.2-0.2-0.4-0.2-0.7-0.2c-0.3,0-0.5,0.1-0.7,0.2c-0.2,0.1-0.3,0.3-0.4,0.5l-0.9-0.4
			c0.1-0.3,0.3-0.6,0.7-0.9c0.3-0.3,0.7-0.4,1.2-0.4c0.4,0,0.7,0.1,1,0.2c0.3,0.1,0.5,0.3,0.7,0.6s0.2,0.5,0.2,0.9
			c0,0.3-0.1,0.6-0.2,0.8c-0.2,0.2-0.3,0.4-0.6,0.5v0c0.3,0.1,0.5,0.3,0.7,0.6c0.2,0.3,0.3,0.6,0.3,0.9c0,0.4-0.1,0.7-0.3,1
			c-0.2,0.3-0.4,0.5-0.8,0.7s-0.7,0.2-1.1,0.2C120.7,327.4,120.3,327.2,119.9,327z"/>
	</g>
	<g class="st5">
		<path d="M121.8,310.1h-2.9v-0.8l2.8-4.2h1v4h0.8v0.9h-0.8v1.2h-1V310.1z M121.8,309.2v-2.6h-0.1l-1.8,2.6H121.8z"/>
	</g>
	<g class="st5">
		<path d="M120.3,295.5c-0.3-0.1-0.5-0.3-0.8-0.6c-0.2-0.2-0.4-0.6-0.5-0.9l0.9-0.3c0.1,0.3,0.2,0.6,0.4,0.8
			c0.2,0.2,0.5,0.3,0.8,0.3c0.3,0,0.6-0.1,0.9-0.3c0.2-0.2,0.3-0.5,0.3-0.8c0-0.3-0.1-0.6-0.3-0.9c-0.2-0.2-0.5-0.3-0.9-0.3
			c-0.2,0-0.4,0-0.6,0.1s-0.3,0.2-0.4,0.4l-1-0.4l0.4-3.1h3.3v0.9h-2.5l-0.2,1.7l0.1,0c0.3-0.3,0.7-0.4,1.1-0.4c0.3,0,0.7,0.1,1,0.3
			c0.3,0.2,0.5,0.4,0.7,0.7c0.2,0.3,0.3,0.7,0.3,1.1c0,0.4-0.1,0.8-0.3,1.1s-0.4,0.6-0.8,0.7s-0.7,0.3-1.1,0.3
			C120.9,295.7,120.6,295.6,120.3,295.5z"/>
	</g>
	<g class="st5">
		<path d="M120.1,279.6c-0.3-0.2-0.6-0.5-0.8-0.8c-0.2-0.3-0.3-0.7-0.3-1c0-0.4,0.1-0.7,0.2-1c0.1-0.3,0.3-0.7,0.6-1.1l1.6-2.3
			l0.8,0.5l-1.4,2l0,0c0.2-0.1,0.4-0.2,0.6-0.2c0.3,0,0.6,0.1,0.9,0.3c0.3,0.2,0.5,0.4,0.7,0.7c0.2,0.3,0.3,0.6,0.3,1
			c0,0.4-0.1,0.7-0.3,1c-0.2,0.3-0.5,0.6-0.8,0.8c-0.3,0.2-0.7,0.3-1.1,0.3C120.8,279.8,120.5,279.7,120.1,279.6z M121.8,278.8
			c0.2-0.1,0.3-0.2,0.4-0.4s0.2-0.4,0.2-0.6c0-0.2-0.1-0.4-0.2-0.6c-0.1-0.2-0.3-0.3-0.4-0.4s-0.4-0.2-0.6-0.2
			c-0.2,0-0.4,0.1-0.6,0.2s-0.3,0.2-0.4,0.4c-0.1,0.2-0.2,0.4-0.2,0.6c0,0.2,0.1,0.4,0.2,0.6c0.1,0.2,0.3,0.3,0.4,0.4
			s0.4,0.2,0.6,0.2C121.5,278.9,121.7,278.9,121.8,278.8z"/>
	</g>
	<g class="st5">
		<path d="M119.5,263.5l2.7-4.9l0,0h-3v-0.9h4.1v1l-2.9,5.3L119.5,263.5z"/>
	</g>
	<g class="st5">
		<path d="M120.1,247.9c-0.3-0.2-0.6-0.4-0.8-0.7s-0.3-0.6-0.3-0.9s0.1-0.6,0.3-0.9c0.2-0.3,0.4-0.5,0.7-0.6v0
			c-0.2-0.1-0.4-0.3-0.6-0.6c-0.1-0.2-0.2-0.5-0.2-0.7c0-0.3,0.1-0.6,0.3-0.9c0.2-0.3,0.4-0.5,0.7-0.6c0.3-0.1,0.6-0.2,1-0.2
			c0.4,0,0.7,0.1,1,0.2c0.3,0.2,0.5,0.4,0.7,0.6c0.2,0.3,0.3,0.6,0.3,0.9c0,0.3-0.1,0.5-0.2,0.7c-0.1,0.2-0.3,0.4-0.6,0.6v0
			c0.3,0.1,0.5,0.4,0.7,0.6s0.3,0.6,0.3,0.9s-0.1,0.7-0.3,0.9s-0.4,0.5-0.8,0.7s-0.7,0.2-1.1,0.2
			C120.8,248.2,120.5,248.1,120.1,247.9z M122.1,247c0.2-0.2,0.3-0.4,0.3-0.7c0-0.3-0.1-0.5-0.3-0.7c-0.2-0.2-0.5-0.3-0.8-0.3
			s-0.6,0.1-0.8,0.3s-0.3,0.4-0.3,0.7c0,0.3,0.1,0.5,0.3,0.7c0.2,0.2,0.5,0.3,0.8,0.3S121.9,247.2,122.1,247z M122,244.1
			c0.2-0.2,0.3-0.4,0.3-0.6s-0.1-0.5-0.3-0.6s-0.4-0.2-0.7-0.2c-0.3,0-0.5,0.1-0.7,0.2s-0.3,0.4-0.3,0.6s0.1,0.5,0.3,0.6
			s0.4,0.2,0.7,0.2C121.5,244.4,121.8,244.3,122,244.1z"/>
	</g>
	<g class="st5">
		<path d="M120.3,231.8l1.4-2l0,0c-0.2,0.1-0.4,0.2-0.6,0.2c-0.3,0-0.6-0.1-0.9-0.3s-0.5-0.4-0.7-0.7c-0.2-0.3-0.3-0.6-0.3-1
			s0.1-0.7,0.3-1c0.2-0.3,0.5-0.6,0.8-0.8s0.7-0.3,1.1-0.3c0.4,0,0.8,0.1,1.1,0.3c0.3,0.2,0.6,0.5,0.8,0.8c0.2,0.3,0.3,0.7,0.3,1
			c0,0.4-0.1,0.7-0.2,1c-0.1,0.3-0.3,0.7-0.6,1.1l-1.5,2.3L120.3,231.8z M121.8,228.9c0.2-0.1,0.3-0.2,0.4-0.4s0.2-0.4,0.2-0.6
			s-0.1-0.4-0.2-0.6c-0.1-0.2-0.3-0.3-0.4-0.4c-0.2-0.1-0.4-0.2-0.6-0.2c-0.2,0-0.4,0.1-0.6,0.2c-0.2,0.1-0.3,0.2-0.4,0.4
			c-0.1,0.2-0.2,0.4-0.2,0.6s0.1,0.4,0.2,0.6c0.1,0.2,0.3,0.3,0.4,0.4c0.2,0.1,0.4,0.2,0.6,0.2C121.5,229.1,121.7,229,121.8,228.9z"
			/>
	</g>
	<g class="st5">
		<path d="M119.9,216c-0.5-0.3-0.9-0.7-1.2-1.2c-0.3-0.5-0.4-1.1-0.4-1.7s0.1-1.2,0.4-1.7c0.3-0.5,0.7-0.9,1.2-1.2
			c0.5-0.3,1.1-0.4,1.7-0.4c1,0,1.8,0.4,2.4,1.1l-0.7,0.7c-0.2-0.3-0.5-0.5-0.7-0.6s-0.6-0.2-0.9-0.2c-0.4,0-0.8,0.1-1.2,0.3
			c-0.4,0.2-0.6,0.5-0.9,0.9c-0.2,0.4-0.3,0.8-0.3,1.3c0,0.5,0.1,0.9,0.3,1.3c0.2,0.4,0.5,0.7,0.9,0.9c0.4,0.2,0.8,0.3,1.2,0.3
			c0.7,0,1.3-0.3,1.8-0.9l0.7,0.7c-0.3,0.4-0.7,0.7-1.1,0.9s-0.9,0.3-1.4,0.3C121,216.5,120.5,216.3,119.9,216z"/>
	</g>
	<g class="st5">
		<path d="M119.5,194h3.9v0.9h-2.9v1.9h2.6v0.9h-2.6v2.7h-1V194z"/>
	</g>
	<g class="st5">
		<path d="M119.6,184.3c-0.5-0.3-0.9-0.7-1.2-1.2c-0.3-0.5-0.5-1.1-0.5-1.7s0.2-1.2,0.5-1.7c0.3-0.5,0.7-0.9,1.2-1.2
			c0.5-0.3,1.1-0.4,1.7-0.4c0.5,0,0.9,0.1,1.4,0.3s0.8,0.4,1.1,0.7l-0.7,0.7c-0.4-0.5-1-0.7-1.7-0.7c-0.4,0-0.8,0.1-1.2,0.3
			c-0.4,0.2-0.7,0.5-0.9,0.9s-0.3,0.8-0.3,1.3c0,0.5,0.1,0.9,0.3,1.3s0.5,0.7,0.9,0.9c0.4,0.2,0.8,0.3,1.2,0.3
			c0.7,0,1.2-0.2,1.7-0.6c0.1-0.1,0.3-0.3,0.3-0.5c0.1-0.2,0.2-0.4,0.2-0.7h-2.2v-0.9h3.1c0,0.2,0.1,0.4,0.1,0.5
			c0,0.4-0.1,0.8-0.2,1.2c-0.1,0.4-0.3,0.7-0.6,1c-0.3,0.3-0.6,0.6-1,0.7s-0.9,0.2-1.4,0.2C120.7,184.8,120.2,184.6,119.6,184.3z"/>
	</g>
	<g class="st5">
		<path d="M118.7,162.3h1v2.7h3v-2.7h1v6.4h-1V166h-3v2.8h-1V162.3z"/>
	</g>
	<g class="st5">
		<path d="M119.8,152.7c-0.4-0.3-0.6-0.6-0.8-1.1l0.9-0.4c0.1,0.3,0.2,0.6,0.4,0.7c0.2,0.2,0.4,0.2,0.7,0.2c0.3,0,0.6-0.1,0.8-0.3
			s0.3-0.5,0.3-0.9v-4.5h1v4.4c0,0.5-0.1,0.8-0.3,1.2c-0.2,0.3-0.4,0.6-0.7,0.7c-0.3,0.2-0.7,0.3-1,0.3
			C120.6,153.1,120.1,153,119.8,152.7z"/>
	</g>
	<g class="st5">
		<path d="M118,130.7h1.3l1.9,4.9h0.1l1.9-4.9h1.3v6.4h-1v-3.6l0.1-1.1h-0.1l-1.9,4.8h-0.8l-1.9-4.8h-0.1l0.1,1.1v3.6h-1V130.7z"/>
	</g>
	<g class="st5">
		<path d="M119.3,114.8h2.2c0.4,0,0.7,0.1,1.1,0.3s0.6,0.4,0.8,0.7c0.2,0.3,0.3,0.6,0.3,1s-0.1,0.7-0.3,1s-0.4,0.5-0.8,0.7
			s-0.7,0.3-1.1,0.3h-1.2v2.5h-1V114.8z M121.5,117.8c0.3,0,0.6-0.1,0.8-0.3c0.2-0.2,0.3-0.4,0.3-0.7c0-0.3-0.1-0.5-0.3-0.7
			c-0.2-0.2-0.5-0.3-0.8-0.3h-1.3v2.1H121.5z"/>
	</g>
	<g class="st5">
		<path d="M122.7,105.2c-0.5,0.2-1,0.3-1.5,0.3c-0.6,0-1.2-0.1-1.7-0.4c-0.5-0.3-0.9-0.7-1.2-1.2s-0.4-1.1-0.4-1.7s0.1-1.2,0.4-1.7
			c0.3-0.5,0.7-0.9,1.2-1.2c0.5-0.3,1.1-0.5,1.7-0.5s1.2,0.1,1.7,0.4s0.9,0.7,1.2,1.2c0.3,0.5,0.4,1.1,0.4,1.7c0,0.5-0.1,1-0.3,1.4
			c-0.2,0.4-0.5,0.8-0.8,1.1l0.5,0.7l-0.7,0.5L122.7,105.2z M122.2,104.4l-0.7-1.1l0.7-0.5l0.7,1.1c0.2-0.2,0.4-0.5,0.5-0.8
			c0.1-0.3,0.2-0.6,0.2-1c0-0.5-0.1-0.9-0.3-1.3s-0.5-0.7-0.8-0.9c-0.4-0.2-0.8-0.3-1.2-0.3c-0.4,0-0.8,0.1-1.2,0.3
			s-0.6,0.5-0.8,0.9s-0.3,0.8-0.3,1.3c0,0.5,0.1,0.9,0.3,1.3s0.5,0.7,0.8,0.9s0.8,0.3,1.2,0.3C121.6,104.6,121.9,104.5,122.2,104.4z
			"/>
	</g>
	<g class="st5">
		<path d="M119.2,83.1h2.3c0.4,0,0.7,0.1,1.1,0.3s0.6,0.4,0.7,0.7c0.2,0.3,0.3,0.6,0.3,1c0,0.4-0.1,0.8-0.4,1.1
			c-0.3,0.3-0.6,0.6-1,0.7l0,0l1.8,2.6v0.1h-1.1L121,87h-0.8v2.5h-1V83.1z M121.5,86.1c0.3,0,0.6-0.1,0.8-0.3
			c0.2-0.2,0.3-0.4,0.3-0.7c0-0.3-0.1-0.5-0.3-0.7s-0.5-0.3-0.8-0.3h-1.3v2.1H121.5z"/>
	</g>
	<g class="st5">
		<path d="M118.4,67.3h1.1l1.5,4.3l0.2,0.7h0.1l0.2-0.7l1.5-4.3h1.1l-2.3,6.4h-1L118.4,67.3z"/>
	</g>
	<g class="st5">
		<path d="M117.1,51.4h1.1l1,4.2l0.1,0.6h0.1l0.1-0.6l1.3-4.2h1l1.2,4.2l0.1,0.5h0.1l0.1-0.5l1-4.2h1.1l-1.7,6.4h-1l-1.2-4.3
			l-0.1-0.6h-0.1l-0.2,0.6l-1.3,4.3h-1L117.1,51.4z"/>
	</g>
	<g class="st5">
		<path d="M120.6,38.7l-2-3.1h1.2l1.4,2.3h0.1l1.4-2.3h1.2l-2,3.1l2.2,3.3h-1.2l-1.6-2.5h-0.1l-1.6,2.5h-1.2L120.6,38.7z"/>
	</g>
	<g class="st5">
		<path d="M136.3,357.2c1.2-1.2,2-2,2.2-2.3c0.3-0.3,0.4-0.5,0.5-0.7c0.1-0.2,0.1-0.4,0.1-0.6c0-0.2-0.1-0.4-0.3-0.6
			s-0.4-0.3-0.7-0.3c-0.3,0-0.5,0.1-0.7,0.2c-0.2,0.2-0.3,0.4-0.4,0.6l-0.9-0.4c0.1-0.2,0.2-0.4,0.3-0.6s0.4-0.4,0.7-0.5
			c0.3-0.1,0.6-0.2,1-0.2c0.4,0,0.7,0.1,1,0.2c0.3,0.2,0.5,0.4,0.7,0.6c0.2,0.3,0.2,0.6,0.2,0.9c0,0.6-0.3,1.3-1,2
			c-0.3,0.3-0.6,0.6-0.9,0.9c-0.3,0.3-0.6,0.6-0.8,0.8l0,0h2.7v0.9h-4V357.2z"/>
	</g>
	<g class="st5">
		<path d="M150.5,357.8c-0.4-0.3-0.7-0.7-0.8-1.2l0.9-0.4c0.1,0.3,0.2,0.6,0.4,0.7s0.5,0.3,0.8,0.3c0.3,0,0.6-0.1,0.8-0.3
			c0.2-0.2,0.3-0.4,0.3-0.7s-0.1-0.5-0.3-0.7c-0.2-0.2-0.5-0.3-0.9-0.3h-0.5v-0.9h0.5c0.3,0,0.6-0.1,0.8-0.2s0.3-0.4,0.3-0.7
			c0-0.2-0.1-0.4-0.3-0.6c-0.2-0.2-0.4-0.2-0.7-0.2s-0.5,0.1-0.7,0.2c-0.2,0.1-0.3,0.3-0.4,0.5l-0.9-0.4c0.1-0.3,0.3-0.6,0.7-0.9
			c0.3-0.3,0.7-0.4,1.2-0.4c0.4,0,0.7,0.1,1,0.2c0.3,0.1,0.5,0.3,0.7,0.6s0.2,0.5,0.2,0.9c0,0.3-0.1,0.6-0.2,0.8
			c-0.2,0.2-0.3,0.4-0.6,0.5v0c0.3,0.1,0.5,0.3,0.7,0.6s0.3,0.6,0.3,0.9c0,0.4-0.1,0.7-0.3,1s-0.4,0.5-0.8,0.7
			c-0.3,0.2-0.7,0.2-1.1,0.2C151.3,358.2,150.9,358.1,150.5,357.8z"/>
	</g>
	<g class="st5">
		<path d="M165.9,356.8H163v-0.8l2.8-4.2h1v4h0.8v0.9h-0.8v1.2h-1V356.8z M165.9,355.9v-2.6h-0.1l-1.8,2.6H165.9z"/>
	</g>
	<g class="st5">
		<path d="M177.9,358c-0.3-0.1-0.5-0.3-0.8-0.6c-0.2-0.2-0.4-0.6-0.5-0.9l0.9-0.3c0.1,0.3,0.2,0.6,0.4,0.8c0.2,0.2,0.5,0.3,0.8,0.3
			c0.3,0,0.6-0.1,0.9-0.3c0.2-0.2,0.3-0.5,0.3-0.8c0-0.3-0.1-0.6-0.3-0.9c-0.2-0.2-0.5-0.3-0.9-0.3c-0.2,0-0.4,0-0.6,0.1
			s-0.3,0.2-0.4,0.4l-1-0.4l0.4-3.1h3.3v0.9h-2.5l-0.2,1.7l0.1,0c0.3-0.3,0.7-0.4,1.1-0.4c0.3,0,0.7,0.1,1,0.3
			c0.3,0.2,0.5,0.4,0.7,0.7c0.2,0.3,0.3,0.7,0.3,1.1c0,0.4-0.1,0.8-0.3,1.1s-0.4,0.6-0.8,0.7s-0.7,0.3-1.1,0.3
			C178.5,358.2,178.2,358.2,177.9,358z"/>
	</g>
	<g class="st5">
		<path d="M191.3,357.9c-0.3-0.2-0.6-0.5-0.8-0.8c-0.2-0.3-0.3-0.7-0.3-1c0-0.4,0.1-0.7,0.2-1c0.1-0.3,0.3-0.7,0.6-1.1l1.6-2.3
			l0.8,0.5l-1.4,2l0,0c0.2-0.1,0.4-0.2,0.6-0.2c0.3,0,0.6,0.1,0.9,0.3c0.3,0.2,0.5,0.4,0.7,0.7c0.2,0.3,0.3,0.6,0.3,1
			c0,0.4-0.1,0.7-0.3,1c-0.2,0.3-0.5,0.6-0.8,0.8c-0.3,0.2-0.7,0.3-1.1,0.3C192,358.2,191.6,358.1,191.3,357.9z M193,357.2
			c0.2-0.1,0.3-0.2,0.4-0.4s0.2-0.4,0.2-0.6c0-0.2-0.1-0.4-0.2-0.6c-0.1-0.2-0.3-0.3-0.4-0.4s-0.4-0.2-0.6-0.2
			c-0.2,0-0.4,0.1-0.6,0.2s-0.3,0.2-0.4,0.4c-0.1,0.2-0.2,0.4-0.2,0.6c0,0.2,0.1,0.4,0.2,0.6c0.1,0.2,0.3,0.3,0.4,0.4
			s0.4,0.2,0.6,0.2C192.6,357.3,192.8,357.3,193,357.2z"/>
	</g>
	<g class="st5">
		<path d="M204.2,357.8l2.7-4.9l0,0h-3v-0.9h4.1v1l-2.9,5.3L204.2,357.8z"/>
	</g>
	<g class="st5">
		<path d="M218.3,358c-0.3-0.2-0.6-0.4-0.8-0.7s-0.3-0.6-0.3-0.9s0.1-0.6,0.3-0.9c0.2-0.3,0.4-0.5,0.7-0.6v0
			c-0.2-0.1-0.4-0.3-0.6-0.6c-0.1-0.2-0.2-0.5-0.2-0.7c0-0.3,0.1-0.6,0.3-0.9c0.2-0.3,0.4-0.5,0.7-0.6c0.3-0.1,0.6-0.2,1-0.2
			c0.4,0,0.7,0.1,1,0.2c0.3,0.2,0.5,0.4,0.7,0.6c0.2,0.3,0.3,0.6,0.3,0.9c0,0.3-0.1,0.5-0.2,0.7c-0.1,0.2-0.3,0.4-0.6,0.6v0
			c0.3,0.1,0.5,0.4,0.7,0.6s0.3,0.6,0.3,0.9s-0.1,0.7-0.3,0.9s-0.4,0.5-0.8,0.7s-0.7,0.2-1.1,0.2C219,358.2,218.6,358.1,218.3,358z
			 M220.3,357c0.2-0.2,0.3-0.4,0.3-0.7c0-0.3-0.1-0.5-0.3-0.7c-0.2-0.2-0.5-0.3-0.8-0.3s-0.6,0.1-0.8,0.3s-0.3,0.4-0.3,0.7
			c0,0.3,0.1,0.5,0.3,0.7c0.2,0.2,0.5,0.3,0.8,0.3S220,357.2,220.3,357z M220.1,354.2c0.2-0.2,0.3-0.4,0.3-0.6s-0.1-0.5-0.3-0.6
			s-0.4-0.2-0.7-0.2c-0.3,0-0.5,0.1-0.7,0.2s-0.3,0.4-0.3,0.6s0.1,0.5,0.3,0.6s0.4,0.2,0.7,0.2C219.7,354.4,219.9,354.3,220.1,354.2
			z"/>
	</g>
	<g class="st5">
		<path d="M231.9,357.7l1.4-2l0,0c-0.2,0.1-0.4,0.2-0.6,0.2c-0.3,0-0.6-0.1-0.9-0.3s-0.5-0.4-0.7-0.7c-0.2-0.3-0.3-0.6-0.3-1
			s0.1-0.7,0.3-1c0.2-0.3,0.5-0.6,0.8-0.8s0.7-0.3,1.1-0.3c0.4,0,0.8,0.1,1.1,0.3c0.3,0.2,0.6,0.5,0.8,0.8c0.2,0.3,0.3,0.7,0.3,1
			c0,0.4-0.1,0.7-0.2,1c-0.1,0.3-0.3,0.7-0.6,1.1l-1.5,2.3L231.9,357.7z M233.5,354.9c0.2-0.1,0.3-0.2,0.4-0.4s0.2-0.4,0.2-0.6
			s-0.1-0.4-0.2-0.6c-0.1-0.2-0.3-0.3-0.4-0.4c-0.2-0.1-0.4-0.2-0.6-0.2c-0.2,0-0.4,0.1-0.6,0.2c-0.2,0.1-0.3,0.2-0.4,0.4
			c-0.1,0.2-0.2,0.4-0.2,0.6s0.1,0.4,0.2,0.6c0.1,0.2,0.3,0.3,0.4,0.4c0.2,0.1,0.4,0.2,0.6,0.2C233.1,355,233.3,355,233.5,354.9z"/>
	</g>
	<g class="st5">
		<path d="M245.1,357.8c-0.5-0.3-0.9-0.7-1.2-1.2c-0.3-0.5-0.4-1.1-0.4-1.7s0.1-1.2,0.4-1.7c0.3-0.5,0.7-0.9,1.2-1.2
			c0.5-0.3,1.1-0.4,1.7-0.4c1,0,1.8,0.4,2.4,1.1l-0.7,0.7c-0.2-0.3-0.5-0.5-0.7-0.6s-0.6-0.2-0.9-0.2c-0.4,0-0.8,0.1-1.2,0.3
			c-0.4,0.2-0.6,0.5-0.9,0.9c-0.2,0.4-0.3,0.8-0.3,1.3c0,0.5,0.1,0.9,0.3,1.3c0.2,0.4,0.5,0.7,0.9,0.9c0.4,0.2,0.8,0.3,1.2,0.3
			c0.7,0,1.3-0.3,1.8-0.9l0.7,0.7c-0.3,0.4-0.7,0.7-1.1,0.9s-0.9,0.3-1.4,0.3C246.2,358.2,245.7,358.1,245.1,357.8z"/>
	</g>
	<g class="st5">
		<path d="M258.2,351.6h3.9v0.9h-2.9v1.9h2.6v0.9h-2.6v2.7h-1V351.6z"/>
	</g>
	<g class="st5">
		<path d="M271.9,357.8c-0.5-0.3-0.9-0.7-1.2-1.2c-0.3-0.5-0.5-1.1-0.5-1.7s0.2-1.2,0.5-1.7c0.3-0.5,0.7-0.9,1.2-1.2
			c0.5-0.3,1.1-0.4,1.7-0.4c0.5,0,0.9,0.1,1.4,0.3s0.8,0.4,1.1,0.7l-0.7,0.7c-0.4-0.5-1-0.7-1.7-0.7c-0.4,0-0.8,0.1-1.2,0.3
			c-0.4,0.2-0.7,0.5-0.9,0.9c-0.2,0.4-0.3,0.8-0.3,1.3c0,0.5,0.1,0.9,0.3,1.3s0.5,0.7,0.9,0.9c0.4,0.2,0.8,0.3,1.2,0.3
			c0.7,0,1.2-0.2,1.7-0.6c0.1-0.1,0.3-0.3,0.3-0.5c0.1-0.2,0.2-0.4,0.2-0.7h-2.2v-0.9h3.1c0,0.2,0.1,0.4,0.1,0.5
			c0,0.4-0.1,0.8-0.2,1.2c-0.1,0.4-0.3,0.7-0.6,1c-0.3,0.3-0.6,0.6-1,0.7s-0.9,0.2-1.3,0.2C273,358.2,272.4,358.1,271.9,357.8z"/>
	</g>
	<g class="st5">
		<path d="M284.5,351.6h1v2.7h3v-2.7h1v6.4h-1v-2.8h-3v2.8h-1V351.6z"/>
	</g>
	<g class="st5">
		<path d="M299,357.8c-0.4-0.3-0.6-0.6-0.8-1.1l0.9-0.4c0.1,0.3,0.2,0.6,0.4,0.7c0.2,0.2,0.4,0.2,0.7,0.2c0.3,0,0.6-0.1,0.8-0.3
			c0.2-0.2,0.3-0.5,0.3-0.9v-4.5h1v4.4c0,0.5-0.1,0.8-0.3,1.2c-0.2,0.3-0.4,0.6-0.7,0.7s-0.7,0.3-1,0.3
			C299.8,358.2,299.4,358.1,299,357.8z"/>
	</g>
	<g class="st5">
		<path d="M310.8,351.6h1.3l1.9,4.9h0.1l1.9-4.9h1.3v6.4h-1v-3.6l0.1-1.1h-0.1l-1.9,4.8h-0.8l-1.9-4.8h-0.1l0.1,1.1v3.6h-1V351.6z"
			/>
	</g>
	<g class="st5">
		<path d="M325.6,351.6h2.2c0.4,0,0.7,0.1,1.1,0.3c0.3,0.2,0.6,0.4,0.8,0.7c0.2,0.3,0.3,0.6,0.3,1s-0.1,0.7-0.3,1
			c-0.2,0.3-0.4,0.5-0.8,0.7c-0.3,0.2-0.7,0.3-1.1,0.3h-1.2v2.5h-1V351.6z M327.8,354.6c0.3,0,0.6-0.1,0.8-0.3
			c0.2-0.2,0.3-0.4,0.3-0.7c0-0.3-0.1-0.5-0.3-0.7c-0.2-0.2-0.5-0.3-0.8-0.3h-1.3v2.1H327.8z"/>
	</g>
	<g class="st5">
		<path d="M342.5,357.9c-0.5,0.2-1,0.3-1.5,0.3c-0.6,0-1.2-0.1-1.7-0.4s-0.9-0.7-1.2-1.2s-0.4-1.1-0.4-1.7s0.1-1.2,0.4-1.7
			c0.3-0.5,0.7-0.9,1.2-1.2s1.1-0.5,1.7-0.5s1.2,0.1,1.7,0.4s0.9,0.7,1.2,1.2c0.3,0.5,0.4,1.1,0.4,1.7c0,0.5-0.1,1-0.3,1.4
			s-0.5,0.8-0.8,1.1l0.5,0.7l-0.7,0.5L342.5,357.9z M342,357.1l-0.7-1.1l0.7-0.5l0.7,1.1c0.2-0.2,0.4-0.5,0.5-0.8s0.2-0.6,0.2-1
			c0-0.5-0.1-0.9-0.3-1.3s-0.5-0.7-0.8-0.9c-0.4-0.2-0.8-0.3-1.2-0.3s-0.8,0.1-1.2,0.3c-0.4,0.2-0.6,0.5-0.8,0.9s-0.3,0.8-0.3,1.3
			c0,0.5,0.1,0.9,0.3,1.3s0.5,0.7,0.8,0.9c0.4,0.2,0.8,0.3,1.2,0.3C341.4,357.3,341.7,357.2,342,357.1z"/>
	</g>
	<g class="st5">
		<path d="M352.5,351.6h2.3c0.4,0,0.7,0.1,1.1,0.3c0.3,0.2,0.6,0.4,0.7,0.7c0.2,0.3,0.3,0.6,0.3,1c0,0.4-0.1,0.8-0.4,1.1
			s-0.6,0.6-1,0.7l0,0l1.8,2.6v0.1H356l-1.7-2.5h-0.8v2.5h-1V351.6z M354.8,354.6c0.3,0,0.6-0.1,0.8-0.3c0.2-0.2,0.3-0.4,0.3-0.7
			c0-0.3-0.1-0.5-0.3-0.7c-0.2-0.2-0.5-0.3-0.8-0.3h-1.3v2.1H354.8z"/>
	</g>
	<g class="st5">
		<path d="M365.2,351.6h1.1l1.5,4.3l0.2,0.7h0.1l0.2-0.7l1.5-4.3h1.1l-2.3,6.4h-1L365.2,351.6z"/>
	</g>
	<g class="st5">
		<path d="M377.4,351.6h1.1l1,4.2l0.1,0.6h0.1l0.1-0.6l1.3-4.2h1l1.2,4.2l0.1,0.5h0.1l0.1-0.5l1-4.2h1.1l-1.7,6.4h-1l-1.2-4.3
			l-0.1-0.6h-0.1l-0.2,0.6l-1.3,4.3h-1L377.4,351.6z"/>
	</g>
	<g class="st5">
		<path d="M394.4,354.7l-2-3.1h1.2l1.4,2.3h0.1l1.4-2.3h1.2l-2,3.1l2.2,3.3h-1.2l-1.6-2.5h-0.1l-1.6,2.5h-1.2L394.4,354.7z"/>
	</g>
	<path class="st3" d="M274,141.1c-8-15.2-26.8-21.1-42-13.1c-10.2,5.4-16.6,16-16.6,27.5c0,5,1.2,9.9,3.5,14.4
		c1.2,2.3,2.7,4.5,4.5,6.5l0,0l2.8,3.2c7.8,9,13.9,19.5,17.7,30.9l0.2,0.5l0,0c0.3,1.3,1.6,2.2,3,1.9c0.9-0.2,1.6-0.9,1.9-1.9l0,0
		l0.1-0.5c3.8-11.4,9.8-21.8,17.7-30.9l2.8-3.2C278.2,166.7,280,152.7,274,141.1L274,141.1z M246.5,167.4c-6.6,0-11.9-5.3-11.9-11.9
		s5.3-11.9,11.9-11.9s11.9,5.3,11.9,11.9c0,2.8-1,5.4-2.7,7.6C253.4,165.9,250,167.4,246.5,167.4L246.5,167.4z"/>
	<path d="M258.3,155.6c0,6.6-5.3,11.9-11.9,11.9s-11.9-5.3-11.9-11.9s5.3-11.9,11.9-11.9c0,0,0,0,0,0c6.5,0,11.9,5.2,11.9,11.8
		C258.3,155.5,258.3,155.5,258.3,155.6z"/>
	<path class="st6" d="M258.3,155.6c0,6.6-5.3,11.9-11.9,11.9s-11.9-5.3-11.9-11.9s5.3-11.9,11.9-11.9c0,0,0,0,0,0
		c6.5,0,11.9,5.2,11.9,11.8C258.3,155.5,258.3,155.5,258.3,155.6z"/>
</g>
</svg>
