<?xml version="1.0" encoding="utf-8"?>
<!-- Generator: Adobe Illustrator 23.1.1, SVG Export Plug-In . SVG Version: 6.00 Build 0)  -->
<svg version="1.1" id="Layer_1" xmlns="http://www.w3.org/2000/svg" xmlns:xlink="http://www.w3.org/1999/xlink" x="0px" y="0px"
	 viewBox="0 0 519 390" style="enable-background:new 0 0 519 390;" xml:space="preserve">
<style type="text/css">
	.st0{fill:#E7E9EC;}
	.st1{fill:none;}
	.st2{fill:none;stroke:#000000;stroke-width:5;stroke-linecap:round;stroke-linejoin:round;}
	.st3{fill:#5285EB;}
	.st4{enable-background:new    ;}
	.st5{fill:#FFFFFF;}
	.st6{fill:none;stroke:#D4E2F9;stroke-width:7;stroke-linecap:round;stroke-miterlimit:10;}
</style>
<g id="BG">
	<path class="st0" d="M248.9,43.2c11.3,3.5,23,5.7,34.9,6.6c30.2,2.2,60.8,2.6,89.5-6.7c13.5-4.4,26.4-10.8,39.9-15.2
		c14-4.5,28.7-6.8,43.4-6.6c15.5,0.1,32.7,4,41.4,16.8c11,16.1,3.6,37.7-2.2,56.3c-14.9,47.4-17.7,97.8-8.3,146.6
		c4.1,21.4,10.6,43.3,5.7,64.5c-4.2,17.8-15.9,32.7-27.3,47l0,0c-12.8,16.1-32.3,25.4-52.9,25.4c-42.2-0.2-84.7-16.2-125.6-29.6
		c-9.2-3-18.6-5.9-28.3-5.3c-16.9,1.1-30.8,12.7-45.6,20.9c-37.1,20.7-82.9,20.9-124.1,10.1c-18.8-4.9-37.8-12.4-51.3-26.4
		c-14.4-14.8-21.4-35.6-22.4-56.2s3.6-41.1,9.9-60.7c8-24.9,19-50.1,16.6-76.1c-1.9-20.7-12.2-40.2-12.2-61
		c-0.1-34.2,28.8-63.5,61.5-73.3s68.2-4,101,5.7C212,31.8,234.2,38.6,248.9,43.2z"/>
	<rect class="st1" width="519" height="390"/>
</g>
<g>
	<circle class="st2" cx="167.8" cy="195" r="147.6"/>
	<line class="st2" x1="167.8" y1="47.3" x2="167.8" y2="342.6"/>
	<ellipse class="st2" cx="167.8" cy="195" rx="87.5" ry="147.6"/>
	<line class="st2" x1="315.5" y1="195" x2="20.2" y2="195"/>
	<ellipse class="st2" cx="167.8" cy="195" rx="147.6" ry="87.5"/>
	<circle class="st3" cx="167.8" cy="282.5" r="15.7"/>
	<path class="st3" d="M244.5,113v104c0,4.5-3.7,8.2-8.2,8.2l0,0h-60.5l-8,12.9l-8-12.9H99.3c-4.5,0-8.2-3.7-8.2-8.2l0,0V113
		c0-4.5,3.7-8.2,8.2-8.2h137C240.8,104.8,244.5,108.5,244.5,113L244.5,113z"/>
	<path class="st3" d="M86.6,104.8h162.5c5.7,0,10.4,4.7,10.4,10.4v99.5c0,5.7-4.7,10.4-10.4,10.4H86.6c-5.7,0-10.4-4.7-10.4-10.4
		v-99.5C76.2,109.4,80.8,104.8,86.6,104.8z"/>
	<g class="st4">
		<path class="st5" d="M102.3,157.5c-0.9-0.4-1.7-0.9-2.4-1.7c-0.7-0.8-1.2-1.7-1.4-2.8l3.2-1.3c0.2,0.9,0.6,1.7,1.2,2.2
			s1.3,0.8,2.2,0.8s1.6-0.3,2.2-0.9c0.6-0.6,0.9-1.3,0.9-2.2s-0.3-1.6-0.9-2.2c-0.6-0.6-1.3-0.9-2.2-0.9c-0.5,0-1,0.1-1.5,0.3
			s-0.8,0.5-1.1,0.9l-3.5-1.6l1.1-9.3h10.5v3.1H103l-0.7,4.4l0.2,0.1c0.9-0.7,2-1.1,3.2-1.1c1,0,2,0.3,2.9,0.8s1.6,1.3,2.2,2.2
			c0.5,1,0.8,2,0.8,3.3c0,1.2-0.3,2.3-0.8,3.3c-0.6,1-1.3,1.7-2.3,2.3c-1,0.5-2.1,0.8-3.4,0.8C104.1,158.1,103.2,157.9,102.3,157.5z
			"/>
	</g>
	<g class="st4">
		<path class="st5" d="M116.8,156.8c-1.2-0.8-2-2.1-2.5-3.7l3.4-1.3c0.2,0.9,0.6,1.6,1.2,2.1s1.3,0.7,2.1,0.7c0.8,0,1.5-0.2,2-0.7
			s0.9-1.1,0.9-1.8c0-0.8-0.3-1.4-0.9-1.9s-1.4-0.7-2.5-0.7h-1.6v-3.2h1.5c0.8,0,1.5-0.2,2-0.6c0.6-0.4,0.8-1,0.8-1.7
			c0-0.6-0.2-1.1-0.7-1.5s-1-0.6-1.7-0.6s-1.3,0.2-1.8,0.6c-0.5,0.4-0.8,0.9-1,1.5l-3.2-1.3c0.4-1.1,1.1-2,2.1-2.8s2.3-1.2,3.9-1.2
			c1.2,0,2.2,0.2,3.1,0.7c0.9,0.4,1.6,1,2.1,1.8s0.8,1.6,0.8,2.6s-0.2,1.9-0.7,2.6c-0.5,0.7-1,1.2-1.7,1.6v0.2
			c0.9,0.4,1.6,0.9,2.2,1.7s0.8,1.7,0.8,2.8s-0.3,2-0.8,2.9s-1.3,1.5-2.3,2s-2.1,0.7-3.4,0.7C119.4,158.1,118,157.7,116.8,156.8z"/>
	</g>
	<g class="st4">
		<path class="st5" d="M130.7,157c-0.5-0.5-0.7-1-0.7-1.7s0.2-1.2,0.7-1.7s1-0.7,1.7-0.7s1.2,0.2,1.7,0.7s0.7,1,0.7,1.7
			s-0.2,1.2-0.7,1.7s-1,0.7-1.7,0.7S131.2,157.4,130.7,157z"/>
		<path class="st5" d="M139.9,156.8c-1.2-0.8-2-2.1-2.5-3.7l3.4-1.3c0.2,0.9,0.6,1.6,1.2,2.1c0.6,0.5,1.3,0.7,2.1,0.7s1.5-0.2,2-0.7
			c0.6-0.5,0.9-1.1,0.9-1.8c0-0.8-0.3-1.4-0.9-1.9c-0.6-0.5-1.4-0.7-2.5-0.7H142v-3.2h1.5c0.8,0,1.5-0.2,2-0.6
			c0.6-0.4,0.8-1,0.8-1.7c0-0.6-0.2-1.1-0.7-1.5s-1-0.6-1.7-0.6s-1.3,0.2-1.8,0.6c-0.5,0.4-0.8,0.9-1,1.5l-3.2-1.3
			c0.4-1.1,1.1-2,2.1-2.8s2.3-1.2,3.9-1.2c1.2,0,2.2,0.2,3.1,0.7c0.9,0.4,1.6,1,2.1,1.8s0.8,1.6,0.8,2.6s-0.2,1.9-0.7,2.6
			s-1,1.2-1.7,1.6v0.2c0.9,0.4,1.6,0.9,2.2,1.7c0.6,0.8,0.8,1.7,0.8,2.8s-0.3,2-0.8,2.9s-1.3,1.5-2.3,2s-2.1,0.7-3.4,0.7
			C142.5,158.1,141.1,157.7,139.9,156.8z"/>
		<path class="st5" d="M155.5,156.8c-1.2-0.8-2-2.1-2.5-3.7l3.4-1.3c0.2,0.9,0.6,1.6,1.2,2.1c0.6,0.5,1.3,0.7,2.1,0.7s1.5-0.2,2-0.7
			c0.6-0.5,0.9-1.1,0.9-1.8c0-0.8-0.3-1.4-0.9-1.9c-0.6-0.5-1.4-0.7-2.5-0.7h-1.6v-3.2h1.5c0.8,0,1.5-0.2,2-0.6
			c0.6-0.4,0.8-1,0.8-1.7c0-0.6-0.2-1.1-0.7-1.5s-1-0.6-1.7-0.6s-1.3,0.2-1.8,0.6c-0.5,0.4-0.8,0.9-1,1.5l-3.2-1.3
			c0.4-1.1,1.1-2,2.1-2.8s2.3-1.2,3.9-1.2c1.2,0,2.2,0.2,3.1,0.7c0.9,0.4,1.6,1,2.1,1.8s0.8,1.6,0.8,2.6s-0.2,1.9-0.7,2.6
			s-1,1.2-1.7,1.6v0.2c0.9,0.4,1.6,0.9,2.2,1.7c0.6,0.8,0.8,1.7,0.8,2.8s-0.3,2-0.8,2.9s-1.3,1.5-2.3,2s-2.1,0.7-3.4,0.7
			C158.1,158.1,156.7,157.7,155.5,156.8z"/>
	</g>
	<g class="st4">
		<path class="st5" d="M172.1,156.2l3.9-5.4l-0.2-0.2c-0.4,0.2-0.9,0.3-1.4,0.3c-0.9,0-1.9-0.3-2.7-0.8s-1.6-1.2-2.1-2.2
			c-0.5-0.9-0.8-2-0.8-3.1c0-1.2,0.3-2.3,0.9-3.3c0.6-1,1.4-1.7,2.4-2.3c1-0.5,2.1-0.8,3.2-0.8c1.3,0,2.5,0.3,3.5,0.9
			c1,0.6,1.8,1.4,2.4,2.4s0.8,2.1,0.8,3.2s-0.2,2.2-0.7,3.3c-0.4,1-1.1,2.1-2,3.4l-4.5,6.4L172.1,156.2z M177.6,147.1
			c0.6-0.6,0.9-1.3,0.9-2.2s-0.3-1.6-0.9-2.2c-0.6-0.6-1.4-0.9-2.2-0.9c-0.9,0-1.6,0.3-2.2,0.9c-0.6,0.6-0.9,1.3-0.9,2.2
			s0.3,1.6,0.9,2.2c0.6,0.6,1.4,0.9,2.2,0.9C176.2,147.9,177,147.6,177.6,147.1z"/>
	</g>
	<g class="st4">
		<path class="st5" d="M187.2,157.2c-1-0.6-1.8-1.4-2.4-2.4c-0.6-1-0.8-2.1-0.8-3.2c0-1.2,0.2-2.2,0.7-3.3c0.4-1,1.1-2.1,2-3.4
			l4.5-6.4l2.8,1.9l-3.9,5.4l0.2,0.2c0.4-0.2,0.9-0.3,1.4-0.3c0.9,0,1.9,0.3,2.7,0.8c0.9,0.5,1.6,1.2,2.1,2.2c0.5,0.9,0.8,2,0.8,3.1
			c0,1.2-0.3,2.3-0.9,3.3c-0.6,1-1.4,1.7-2.4,2.3c-1,0.5-2.1,0.8-3.2,0.8C189.4,158.1,188.2,157.8,187.2,157.2z M192.8,153.9
			c0.6-0.6,0.9-1.3,0.9-2.2s-0.3-1.6-0.9-2.2c-0.6-0.6-1.4-0.9-2.2-0.9s-1.6,0.3-2.2,0.9c-0.6,0.6-0.9,1.3-0.9,2.2s0.3,1.6,0.9,2.2
			c0.6,0.6,1.4,0.9,2.2,0.9C191.5,154.8,192.2,154.5,192.8,153.9z"/>
		<path class="st5" d="M203.1,157.3c-1-0.5-1.8-1.2-2.4-2c-0.6-0.9-0.9-1.8-0.9-2.9c0-1,0.3-1.9,0.8-2.7s1.2-1.4,2-1.8v-0.2
			c-0.6-0.4-1.2-1-1.6-1.7c-0.4-0.7-0.6-1.4-0.6-2.2c0-1,0.3-1.9,0.8-2.7s1.3-1.4,2.2-1.9s2-0.7,3.2-0.7s2.2,0.2,3.1,0.7
			c0.9,0.5,1.7,1.1,2.2,1.9c0.5,0.8,0.8,1.7,0.8,2.7c0,0.8-0.2,1.6-0.6,2.2c-0.4,0.7-1,1.2-1.6,1.7v0.2c0.8,0.4,1.5,1.1,2,1.8
			c0.5,0.8,0.8,1.7,0.8,2.7c0,1.1-0.3,2-0.9,2.9c-0.6,0.9-1.4,1.5-2.4,2s-2.2,0.7-3.5,0.7C205.3,158.1,204.1,157.8,203.1,157.3z
			 M208.9,154c0.6-0.5,0.9-1.1,0.9-1.9c0-0.8-0.3-1.4-0.9-1.9c-0.6-0.5-1.4-0.7-2.3-0.7c-0.9,0-1.7,0.2-2.3,0.7s-0.9,1.1-0.9,1.9
			c0,0.8,0.3,1.4,0.9,1.9c0.6,0.5,1.4,0.7,2.3,0.7C207.5,154.8,208.3,154.5,208.9,154z M208.5,145.7c0.5-0.4,0.8-1,0.8-1.7
			s-0.3-1.2-0.8-1.7c-0.5-0.4-1.1-0.6-1.9-0.6c-0.8,0-1.4,0.2-1.9,0.6c-0.5,0.4-0.8,1-0.8,1.7s0.3,1.3,0.8,1.7s1.2,0.6,1.9,0.6
			S208,146.1,208.5,145.7z"/>
		<path class="st5" d="M219.1,157.3c-1-0.5-1.8-1.2-2.4-2c-0.6-0.9-0.9-1.8-0.9-2.9c0-1,0.3-1.9,0.8-2.7s1.2-1.4,2-1.8v-0.2
			c-0.6-0.4-1.2-1-1.6-1.7c-0.4-0.7-0.6-1.4-0.6-2.2c0-1,0.3-1.9,0.8-2.7s1.3-1.4,2.2-1.9s2-0.7,3.2-0.7s2.2,0.2,3.1,0.7
			c0.9,0.5,1.7,1.1,2.2,1.9c0.5,0.8,0.8,1.7,0.8,2.7c0,0.8-0.2,1.6-0.6,2.2c-0.4,0.7-1,1.2-1.6,1.7v0.2c0.8,0.4,1.5,1.1,2,1.8
			c0.5,0.8,0.8,1.7,0.8,2.7c0,1.1-0.3,2-0.9,2.9c-0.6,0.9-1.4,1.5-2.4,2s-2.2,0.7-3.5,0.7C221.3,158.1,220.1,157.8,219.1,157.3z
			 M224.9,154c0.6-0.5,0.9-1.1,0.9-1.9c0-0.8-0.3-1.4-0.9-1.9c-0.6-0.5-1.4-0.7-2.3-0.7c-0.9,0-1.7,0.2-2.3,0.7s-0.9,1.1-0.9,1.9
			c0,0.8,0.3,1.4,0.9,1.9c0.6,0.5,1.4,0.7,2.3,0.7C223.5,154.8,224.3,154.5,224.9,154z M224.5,145.7c0.5-0.4,0.8-1,0.8-1.7
			s-0.3-1.2-0.8-1.7c-0.5-0.4-1.1-0.6-1.9-0.6c-0.8,0-1.4,0.2-1.9,0.6c-0.5,0.4-0.8,1-0.8,1.7s0.3,1.3,0.8,1.7s1.2,0.6,1.9,0.6
			C223.4,146.3,224,146.1,224.5,145.7z"/>
		<path class="st5" d="M232,160.1l1.6-2.5c-0.4-0.2-0.8-0.4-1.1-0.8c-0.3-0.4-0.4-0.8-0.4-1.3c0-0.7,0.2-1.2,0.7-1.7s1-0.7,1.7-0.7
			s1.2,0.2,1.7,0.7s0.7,1,0.7,1.7c0,0.3-0.1,0.6-0.2,0.9c-0.1,0.3-0.3,0.6-0.5,1l-2.6,3.9L232,160.1z"/>
	</g>
	<g class="st4">
		<path class="st5" d="M98.9,180.4h9.3v3.2h-9.3V180.4z"/>
		<path class="st5" d="M114.4,190c-1-0.6-1.8-1.4-2.4-2.4s-0.8-2.1-0.8-3.2c0-1.2,0.2-2.2,0.7-3.3c0.4-1,1.1-2.1,2-3.4l4.5-6.4
			l2.8,1.9l-3.9,5.4l0.2,0.2c0.4-0.2,0.9-0.3,1.4-0.3c0.9,0,1.9,0.3,2.7,0.8c0.9,0.5,1.6,1.2,2.1,2.2c0.5,0.9,0.8,2,0.8,3.1
			c0,1.2-0.3,2.3-0.9,3.3s-1.4,1.7-2.4,2.3c-1,0.5-2.1,0.8-3.2,0.8C116.6,190.9,115.4,190.6,114.4,190z M120,186.7
			c0.6-0.6,0.9-1.3,0.9-2.2s-0.3-1.6-0.9-2.2c-0.6-0.6-1.4-0.9-2.2-0.9c-0.8,0-1.6,0.3-2.2,0.9c-0.6,0.6-0.9,1.3-0.9,2.2
			s0.3,1.6,0.9,2.2c0.6,0.6,1.4,0.9,2.2,0.9C118.7,187.6,119.4,187.3,120,186.7z"/>
		<path class="st5" d="M128,189.7c-0.5-0.5-0.7-1-0.7-1.7s0.2-1.2,0.7-1.7s1-0.7,1.7-0.7s1.2,0.2,1.7,0.7s0.7,1,0.7,1.7
			s-0.2,1.2-0.7,1.7s-1,0.7-1.7,0.7S128.4,190.2,128,189.7z"/>
		<path class="st5" d="M135,187.2c3.8-3.8,6.1-6,6.8-6.9c0.7-0.7,1.1-1.3,1.4-1.8c0.2-0.5,0.4-1,0.4-1.6s-0.2-1.2-0.7-1.6
			c-0.5-0.4-1.1-0.7-1.9-0.7c-0.8,0-1.4,0.2-1.9,0.7c-0.5,0.4-0.8,1-1,1.6l-3.2-1.3c0.2-0.7,0.6-1.4,1.1-2.1
			c0.5-0.7,1.2-1.2,2.1-1.6c0.9-0.4,1.8-0.6,2.9-0.6c1.2,0,2.3,0.2,3.2,0.7s1.6,1.1,2.2,2c0.5,0.8,0.8,1.8,0.8,2.8c0,2-1,4-3,5.9
			c-0.8,0.8-2.3,2.3-4.5,4.4l0.1,0.2h7.6v3.1H135V187.2z"/>
		<path class="st5" d="M152.3,189.6c-1.2-0.8-2-2.1-2.5-3.7l3.4-1.3c0.2,0.9,0.6,1.6,1.2,2.1c0.6,0.5,1.3,0.7,2.1,0.7s1.5-0.2,2-0.7
			c0.6-0.5,0.9-1.1,0.9-1.8c0-0.8-0.3-1.4-0.9-1.9c-0.6-0.5-1.4-0.7-2.5-0.7h-1.6v-3.2h1.5c0.8,0,1.5-0.2,2-0.6s0.8-1,0.8-1.7
			c0-0.6-0.2-1.1-0.7-1.5s-1-0.6-1.7-0.6s-1.3,0.2-1.8,0.6c-0.5,0.4-0.8,0.9-1,1.5l-3.2-1.3c0.4-1.1,1.1-2,2.1-2.8s2.3-1.2,3.9-1.2
			c1.2,0,2.2,0.2,3.1,0.7c0.9,0.4,1.6,1,2.1,1.8s0.8,1.6,0.8,2.6s-0.2,1.9-0.7,2.6c-0.5,0.7-1,1.2-1.7,1.6v0.2
			c0.9,0.4,1.6,0.9,2.2,1.7c0.6,0.8,0.8,1.7,0.8,2.8s-0.3,2-0.8,2.9s-1.3,1.5-2.3,2s-2.1,0.7-3.4,0.7
			C154.9,190.9,153.5,190.4,152.3,189.6z"/>
		<path class="st5" d="M168.8,190c-1-0.6-1.8-1.4-2.4-2.4c-0.6-1-0.8-2.1-0.8-3.2c0-1.2,0.2-2.2,0.7-3.3s1.1-2.1,2-3.4l4.5-6.4
			l2.8,1.9l-3.9,5.4l0.2,0.2c0.4-0.2,0.9-0.3,1.4-0.3c0.9,0,1.9,0.3,2.7,0.8c0.9,0.5,1.6,1.2,2.1,2.2c0.5,0.9,0.8,2,0.8,3.1
			c0,1.2-0.3,2.3-0.9,3.3c-0.6,1-1.4,1.7-2.4,2.3c-1,0.5-2.1,0.8-3.2,0.8C171,190.9,169.8,190.6,168.8,190z M174.4,186.7
			c0.6-0.6,0.9-1.3,0.9-2.2s-0.3-1.6-0.9-2.2c-0.6-0.6-1.4-0.9-2.2-0.9s-1.6,0.3-2.2,0.9c-0.6,0.6-0.9,1.3-0.9,2.2s0.3,1.6,0.9,2.2
			c0.6,0.6,1.4,0.9,2.2,0.9C173,187.6,173.8,187.3,174.4,186.7z"/>
		<path class="st5" d="M184.6,190c-1-0.6-1.8-1.4-2.4-2.4c-0.6-1-0.8-2.1-0.8-3.2c0-1.2,0.2-2.2,0.7-3.3s1.1-2.1,2-3.4l4.5-6.4
			l2.8,1.9l-3.9,5.4l0.2,0.2c0.4-0.2,0.9-0.3,1.4-0.3c0.9,0,1.9,0.3,2.7,0.8c0.9,0.5,1.6,1.2,2.1,2.2c0.5,0.9,0.8,2,0.8,3.1
			c0,1.2-0.3,2.3-0.9,3.3c-0.6,1-1.4,1.7-2.4,2.3c-1,0.5-2.1,0.8-3.2,0.8C186.8,190.9,185.6,190.6,184.6,190z M190.2,186.7
			c0.6-0.6,0.9-1.3,0.9-2.2s-0.3-1.6-0.9-2.2c-0.6-0.6-1.4-0.9-2.2-0.9s-1.6,0.3-2.2,0.9c-0.6,0.6-0.9,1.3-0.9,2.2s0.3,1.6,0.9,2.2
			c0.6,0.6,1.4,0.9,2.2,0.9C188.9,187.6,189.6,187.3,190.2,186.7z"/>
		<path class="st5" d="M200.4,190.1c-1-0.5-1.8-1.2-2.4-2c-0.6-0.9-0.9-1.8-0.9-2.9c0-1,0.3-1.9,0.8-2.7s1.2-1.4,2-1.8v-0.2
			c-0.6-0.4-1.2-1-1.6-1.7s-0.6-1.4-0.6-2.2c0-1,0.3-1.9,0.8-2.7s1.3-1.4,2.2-1.9s2-0.7,3.2-0.7s2.2,0.2,3.1,0.7
			c0.9,0.5,1.7,1.1,2.2,1.9c0.5,0.8,0.8,1.7,0.8,2.7c0,0.8-0.2,1.6-0.6,2.2c-0.4,0.7-1,1.2-1.6,1.7v0.2c0.8,0.4,1.5,1.1,2,1.8
			c0.5,0.8,0.8,1.7,0.8,2.7c0,1.1-0.3,2-0.9,2.9c-0.6,0.9-1.4,1.5-2.4,2s-2.2,0.7-3.5,0.7S201.5,190.6,200.4,190.1z M206.2,186.8
			c0.6-0.5,0.9-1.1,0.9-1.9c0-0.8-0.3-1.4-0.9-1.9c-0.6-0.5-1.4-0.7-2.3-0.7s-1.7,0.2-2.3,0.7s-0.9,1.1-0.9,1.9
			c0,0.8,0.3,1.4,0.9,1.9c0.6,0.5,1.4,0.7,2.3,0.7S205.6,187.3,206.2,186.8z M205.9,178.5c0.5-0.4,0.8-1,0.8-1.7s-0.3-1.2-0.8-1.7
			c-0.5-0.4-1.1-0.6-1.9-0.6c-0.8,0-1.4,0.2-1.9,0.6c-0.5,0.4-0.8,1-0.8,1.7s0.3,1.3,0.8,1.7s1.2,0.6,1.9,0.6
			S205.3,178.9,205.9,178.5z"/>
		<path class="st5" d="M216.5,190.1c-1-0.5-1.8-1.2-2.4-2s-0.9-1.8-0.9-2.9c0-1,0.3-1.9,0.8-2.7s1.2-1.4,2-1.8v-0.2
			c-0.6-0.4-1.2-1-1.6-1.7c-0.4-0.7-0.6-1.4-0.6-2.2c0-1,0.3-1.9,0.8-2.7s1.3-1.4,2.2-1.9s2-0.7,3.2-0.7s2.2,0.2,3.1,0.7
			c0.9,0.5,1.7,1.1,2.2,1.9c0.5,0.8,0.8,1.7,0.8,2.7c0,0.8-0.2,1.6-0.6,2.2c-0.4,0.7-1,1.2-1.6,1.7v0.2c0.8,0.4,1.5,1.1,2,1.8
			s0.8,1.7,0.8,2.7c0,1.1-0.3,2-0.9,2.9s-1.4,1.5-2.4,2s-2.2,0.7-3.5,0.7C218.7,190.9,217.5,190.6,216.5,190.1z M222.3,186.8
			c0.6-0.5,0.9-1.1,0.9-1.9c0-0.8-0.3-1.4-0.9-1.9c-0.6-0.5-1.4-0.7-2.3-0.7c-0.9,0-1.7,0.2-2.3,0.7s-0.9,1.1-0.9,1.9
			c0,0.8,0.3,1.4,0.9,1.9c0.6,0.5,1.4,0.7,2.3,0.7C220.9,187.6,221.7,187.3,222.3,186.8z M221.9,178.5c0.5-0.4,0.8-1,0.8-1.7
			s-0.3-1.2-0.8-1.7c-0.5-0.4-1.1-0.6-1.9-0.6c-0.8,0-1.4,0.2-1.9,0.6c-0.5,0.4-0.8,1-0.8,1.7s0.3,1.3,0.8,1.7s1.2,0.6,1.9,0.6
			S221.4,178.9,221.9,178.5z"/>
	</g>
	<circle class="st5" cx="324.7" cy="195" r="39.1"/>
	<polyline class="st6" points="328.1,177.9 345.2,195 328.1,212.1 	"/>
	<line class="st6" x1="345.2" y1="195" x2="302.1" y2="195"/>
	<g>
		<path d="M378.9,201.6c-0.8-0.4-1.4-0.9-1.8-1.5c-0.4-0.6-0.6-1.3-0.6-2.1c0-0.8,0.2-1.4,0.6-2c0.4-0.6,0.9-1,1.5-1.4v-0.2
			c-0.5-0.3-0.9-0.7-1.2-1.2c-0.3-0.5-0.5-1-0.5-1.6c0-0.7,0.2-1.4,0.6-2c0.4-0.6,0.9-1.1,1.6-1.4s1.5-0.5,2.3-0.5s1.6,0.2,2.3,0.5
			c0.7,0.3,1.2,0.8,1.6,1.4c0.4,0.6,0.6,1.3,0.6,2c0,0.6-0.2,1.2-0.5,1.7c-0.3,0.5-0.7,0.9-1.2,1.2v0.2c0.6,0.3,1.1,0.8,1.5,1.4
			c0.4,0.6,0.6,1.3,0.6,2c0,0.8-0.2,1.5-0.6,2.1c-0.4,0.6-1,1.1-1.8,1.5c-0.8,0.4-1.6,0.5-2.6,0.5S379.6,201.9,378.9,201.6z
			 M383.2,199.1c0.4-0.4,0.7-0.8,0.7-1.4c0-0.6-0.2-1-0.7-1.4c-0.4-0.4-1-0.5-1.7-0.5s-1.2,0.2-1.7,0.5c-0.5,0.4-0.7,0.8-0.7,1.4
			c0,0.6,0.2,1.1,0.7,1.4c0.4,0.4,1,0.5,1.7,0.5S382.7,199.5,383.2,199.1z M382.9,192.9c0.4-0.3,0.6-0.7,0.6-1.2
			c0-0.5-0.2-0.9-0.6-1.2c-0.4-0.3-0.9-0.5-1.4-0.5c-0.6,0-1.1,0.2-1.4,0.5c-0.4,0.3-0.6,0.7-0.6,1.2c0,0.5,0.2,0.9,0.6,1.2
			c0.4,0.3,0.9,0.5,1.4,0.5C382.1,193.4,382.5,193.2,382.9,192.9z"/>
		<path d="M399.1,201.5c-1,0.4-2.1,0.6-3.1,0.6c-1.4,0-2.7-0.3-3.9-1c-1.2-0.7-2.1-1.6-2.7-2.7c-0.7-1.2-1-2.4-1-3.8s0.3-2.7,1-3.8
			c0.7-1.2,1.6-2.1,2.7-2.7c1.2-0.7,2.4-1,3.9-1s2.7,0.3,3.9,1c1.2,0.7,2.1,1.6,2.7,2.7c0.7,1.2,1,2.4,1,3.8c0,1.1-0.2,2.1-0.6,3.1
			c-0.4,1-1,1.8-1.8,2.5l1.1,1.7l-2,1.4L399.1,201.5z M397.6,199.2l-1.6-2.4l2-1.4l1.6,2.4c0.4-0.4,0.7-0.9,0.9-1.5
			c0.2-0.6,0.3-1.2,0.3-1.8c0-1-0.2-1.8-0.6-2.6c-0.4-0.8-1-1.3-1.8-1.8c-0.7-0.4-1.6-0.6-2.5-0.6s-1.7,0.2-2.4,0.6
			c-0.7,0.4-1.3,1-1.7,1.8c-0.4,0.8-0.6,1.6-0.6,2.6s0.2,1.8,0.6,2.6c0.4,0.8,1,1.3,1.7,1.8s1.6,0.6,2.4,0.6
			C396.5,199.5,397,199.4,397.6,199.2z"/>
		<path d="M415.9,201.5c-1,0.4-2.1,0.6-3.1,0.6c-1.4,0-2.7-0.3-3.9-1c-1.2-0.7-2.1-1.6-2.7-2.7c-0.7-1.2-1-2.4-1-3.8s0.3-2.7,1-3.8
			c0.7-1.2,1.6-2.1,2.7-2.7c1.2-0.7,2.4-1,3.9-1s2.7,0.3,3.9,1c1.2,0.7,2.1,1.6,2.7,2.7c0.7,1.2,1,2.4,1,3.8c0,1.1-0.2,2.1-0.6,3.1
			c-0.4,1-1,1.8-1.8,2.5l1.1,1.7l-2,1.4L415.9,201.5z M414.4,199.2l-1.6-2.4l2-1.4l1.6,2.4c0.4-0.4,0.7-0.9,0.9-1.5
			c0.2-0.6,0.3-1.2,0.3-1.8c0-1-0.2-1.8-0.6-2.6c-0.4-0.8-1-1.3-1.8-1.8c-0.7-0.4-1.6-0.6-2.5-0.6s-1.7,0.2-2.4,0.6
			c-0.7,0.4-1.3,1-1.7,1.8c-0.4,0.8-0.6,1.6-0.6,2.6s0.2,1.8,0.6,2.6c0.4,0.8,1,1.3,1.7,1.8s1.6,0.6,2.4,0.6
			C413.3,199.5,413.9,199.4,414.4,199.2z"/>
		<path d="M422.9,200.9l5.8-10.3l-0.1-0.1h-6.4v-2.5h9.4v2.6l-6.5,11.6L422.9,200.9z"/>
		<path d="M443.1,197.5h-3.5v3.4h-2.4v-3.4h-3.4v-2.4h3.4v-3.4h2.4v3.4h3.5V197.5z"/>
		<path d="M444.7,187.3h3l3,8.8l0.5,1.8h0.2l0.6-1.8l3.1-8.8h3l-5.3,14.5h-2.9L444.7,187.3z"/>
		<path d="M461.2,201.6c-0.8-0.4-1.4-0.9-1.8-1.5c-0.4-0.6-0.6-1.3-0.6-2.1c0-0.8,0.2-1.4,0.6-2c0.4-0.6,0.9-1,1.5-1.4v-0.2
			c-0.5-0.3-0.9-0.7-1.2-1.2c-0.3-0.5-0.5-1-0.5-1.6c0-0.7,0.2-1.4,0.6-2c0.4-0.6,0.9-1.1,1.6-1.4s1.5-0.5,2.3-0.5s1.6,0.2,2.3,0.5
			c0.7,0.3,1.2,0.8,1.6,1.4c0.4,0.6,0.6,1.3,0.6,2c0,0.6-0.2,1.2-0.5,1.7c-0.3,0.5-0.7,0.9-1.2,1.2v0.2c0.6,0.3,1.1,0.8,1.5,1.4
			c0.4,0.6,0.6,1.3,0.6,2c0,0.8-0.2,1.5-0.6,2.1c-0.4,0.6-1,1.1-1.8,1.5c-0.8,0.4-1.6,0.5-2.6,0.5S462,201.9,461.2,201.6z
			 M465.5,199.1c0.4-0.4,0.7-0.8,0.7-1.4c0-0.6-0.2-1-0.7-1.4c-0.4-0.4-1-0.5-1.7-0.5s-1.2,0.2-1.7,0.5c-0.5,0.4-0.7,0.8-0.7,1.4
			c0,0.6,0.2,1.1,0.7,1.4c0.4,0.4,1,0.5,1.7,0.5S465.1,199.5,465.5,199.1z M465.3,192.9c0.4-0.3,0.6-0.7,0.6-1.2
			c0-0.5-0.2-0.9-0.6-1.2c-0.4-0.3-0.9-0.5-1.4-0.5c-0.6,0-1.1,0.2-1.4,0.5c-0.4,0.3-0.6,0.7-0.6,1.2c0,0.5,0.2,0.9,0.6,1.2
			c0.4,0.3,0.9,0.5,1.4,0.5C464.4,193.4,464.9,193.2,465.3,192.9z"/>
	</g>
</g>
</svg>
