<svg xmlns="http://www.w3.org/2000/svg" viewBox="0 0 519 390"><defs><style>.cls-1{fill:#e7e9ec;}.cls-2,.cls-4{fill:none;}.cls-3{fill:#5285eb;}.cls-4{stroke:#000;stroke-linecap:round;stroke-linejoin:round;stroke-width:3px;}</style></defs><g id="BG"><path class="cls-1" d="M176.18,42c-36.79-9.71-77.9-6.84-110.24,13.21S12,113.87,17.44,151.54c2.62,18.3,11,35.22,15.79,53.1,6.45,24.3,6,49.94,3.27,74.94-2.4,22.43-5.2,48.74,11.39,64,10.67,9.83,26.23,11.69,40.68,13.07,48.62,4.64,98.57,9.18,145.59-4.06,27.62-7.78,54.32-21.68,83-21.1,38.28.79,72.24,27.29,110.48,29.37,13.68.75,28.33-2.14,38.25-11.6,6.44-6.13,10.33-14.48,13.15-22.91,16.72-50.06,0-105.49,10.05-157.3,5.94-30.77,21.07-63.17,8.34-91.81-5.79-13-16.8-23.13-29-30.46-41.85-25.14-94.74-19.58-142.72-10.6s-98.37,20.45-144.64,4.9c-4.87-1.63-11.28-3.11-14.26,1.06l-5.26-4.93"/><rect class="cls-2" width="519" height="390"/></g><g id="Layer_2" data-name="Layer 2"><path class="cls-3" d="M39.84,109.83c-1.48.56-3-.52-4.4-1.29s-3.54-1-4.18.44a3.25,3.25,0,0,0,.12,2.23l2.76,9.42c-2.7-.45-5.83-.79-7.83,1.08a33.32,33.32,0,0,0,11.12,3.91l7.5-3a7.86,7.86,0,0,0,3.82-2.46,39.33,39.33,0,0,1,3.56,10.14,4.09,4.09,0,0,1,2.33-1.5c1.64-.19,2.85,1.63,3,3.28s-.37,3.31-.15,4.95A7.77,7.77,0,0,0,60.59,142c.61.48,1.31,1,1.47,1.71a4.28,4.28,0,0,1-.22,1.73A4.68,4.68,0,0,0,64,150.18c.64.39,1.45.7,1.66,1.41s-.22,1.37-.17,2.07c.07,1,1.08,1.67,1.45,2.6a4.48,4.48,0,0,1-.12,2.68c-1.27,4.95-2.3,10-3.09,15a13.48,13.48,0,0,0-.21,3.85c.41,3.14,2.84,5.61,4,8.54.51,1.25.79,2.6,1.36,3.82a17.71,17.71,0,0,0,3.43,4.52l4.7,5a24.66,24.66,0,0,0,0,4,3,3,0,0,0,.25,1.23,3.21,3.21,0,0,0,.91,1,25.33,25.33,0,0,1,4.09,4.5c1.46-.42,1.83-2.46,1.17-3.83s-1.93-2.32-2.94-3.46-1.78-2.77-1.13-4.14c.72-.31,1.46.38,1.95,1q3.66,4.66,7.07,9.55a11.59,11.59,0,0,1,1.75,3.22c.44,1.49.29,3.12.9,4.54,1,2.37,3.8,3.37,6.28,4.13a36.72,36.72,0,0,0,7.5,1.72,1.46,1.46,0,0,1,.85.24c.35.29.33.82.36,1.28a4,4,0,0,0,3.07,3.55c1.51.32,3.19-.23,4.56.47a5.39,5.39,0,0,1,1.53,1.37l4.08,4.7a7,7,0,0,0,2.47,2.08c.8.33,1.69.35,2.51.62s1.64.94,1.61,1.8c-.06,1.94,2.38,3.54,2.4,5.48,0,2.93-4.55,3.67-5.57,6.42a6.23,6.23,0,0,0-.18,2.62l.55,7.33c.17,2.28.37,4.68,1.62,6.6,1.49,2.3,4.16,3.48,6.24,5.26a18.07,18.07,0,0,1,2.25,2.38c3.25,4.07,5.19,9.46,4.13,14.56-.87,4.12-3.6,7.77-3.93,12-.21,2.56.5,5.21-.2,7.68-.48,1.7-1.61,3.23-1.71,5-.09,1.59.69,3.13.72,4.73,0,2-1.07,3.86-1.11,5.86-.07,4.32,4.82,7.66,4.43,12l4.08.3-1.17-8a2.69,2.69,0,0,1,.05-1.49c.29-.68,1-1,1.64-1.42,1.76-1.23,2.44-3.5,2.58-5.63s-.13-4.3.24-6.4a2.87,2.87,0,0,1,.63-1.52c.78-.83,2.1-.65,3.23-.79,3.46-.41,5.47-4,7.89-6.48,3.78-3.94,9.53-5.93,12.35-10.61a38.44,38.44,0,0,1,2.5-4.49c2.94-3.69,8.95-3.92,11.56-7.85,1.27-1.9,1.46-4.28,1.85-6.53a32.6,32.6,0,0,1,7-15.12c-3.66-5.45-12.24-4.31-17.51-8.22a3.77,3.77,0,0,0-1.26-.75,3.15,3.15,0,0,0-1,0l-5,.24c.46-3.9.25-8.39-2.7-11-3.46-3-9.35-2.24-12.41-5.69-.58-.64-1-1.41-1.54-2.09-3.24-4.13-9.27-4.49-14.51-4.3a3,3,0,0,0-1.32.25c-1.66.89-1.09,4.29-3,4.44-2.34-.22-4.79-.15-7.13-.37a2.92,2.92,0,0,1-1.17-.28c-1.32-.73-.83-2.66-.6-4.15.45-3-1.65-6.47-4.69-6.64a21.62,21.62,0,0,1-2.67,0c-.87-.17-1.75-1-1.56-1.82a2.5,2.5,0,0,1,.69-1.06,11.8,11.8,0,0,0,2.36-4.2,1.2,1.2,0,0,0,0-1.08,1.13,1.13,0,0,0-.65-.35c-3.36-.85-6.58,1.44-9.71,2.93a1,1,0,0,1-.83.13,1,1,0,0,1-.42-.48,11.1,11.1,0,0,1-.84-7.3,33.06,33.06,0,0,1,2.47-7.06c.84-1.91,1.8-4,3.65-4.94,2.89-1.53,6.64.24,9.64-1.07a2,2,0,0,0,.91-.68c.42-.67.13-1.55.33-2.31.34-1.31,2-1.79,3.33-1.61s2.63.76,4,.68c.95,1.48,0,3.69,1.13,5.07a7.23,7.23,0,0,0,1.11.95,10.24,10.24,0,0,1,2.62,4.44,10.71,10.71,0,0,0,3.13-6.5c.29-2.93-.63-5.83-1.58-8.61a2.3,2.3,0,0,1-.17-1.31,2.24,2.24,0,0,1,.75-1l4.93-4.52a14.58,14.58,0,0,0,3.64-4.35,14.15,14.15,0,0,0,.91-5.79,15.34,15.34,0,0,1,.83-5.81c.78-1.81,2.5-3.37,4.47-3.31,1,.64,2.32-.84,2.33-2s-.54-2.37-.28-3.52c.35-1.52,1.94-2.38,3.43-2.83s3.12-.75,4.22-1.85a6.2,6.2,0,0,0,1.43-3.1,18.54,18.54,0,0,0,.37-5.46,15.89,15.89,0,0,0-6.4,2l-1.23-2.63-2.06.35c1.75-2.74,6.22-2.67,7.9-5.46.48-.8.78-1.88,1.68-2.15a10.7,10.7,0,0,1,1.39-.1c1.52-.26,1.84-2.57.78-3.69s-2.79-1.26-4.32-1.13a12.66,12.66,0,0,1-4.59,0A9.7,9.7,0,0,1,151,129l-8.05-4.89a10.24,10.24,0,0,1-1,4.72c-.83,1.4-2.63,2.37-4.12,1.72s-2-2.33-3.42-2.89a4.87,4.87,0,0,0-2.73,0,8.57,8.57,0,0,0-3.29,1.08,2.93,2.93,0,0,0-1.41,2.95c.33,1.41,1.94,2.15,2.52,3.47.69,1.56-.24,3.31-.61,5a7.7,7.7,0,0,0,1.41,6.29c.42.54.92,1.29.48,1.81a1.22,1.22,0,0,1-.95.32,5.07,5.07,0,0,1-4.26-2.42,7.44,7.44,0,0,0-1-1.62c-.9-.92-2.36-.88-3.65-.87-3.37,0-6.92-.75-9.39-3s-3.44-6.4-1.47-9.14c.53-.72,1.22-1.32,1.69-2.08.75-1.22.85-2.73,1.27-4.1a9.11,9.11,0,0,1,3.75-5c-1.28-1.42.34-3.74,2.19-4.23a5.85,5.85,0,0,1,6,2.09,15.62,15.62,0,0,0,1.4,1.91,5.84,5.84,0,0,0,1.9,1.07,9.68,9.68,0,0,0,4.92.87,4.1,4.1,0,0,0,3.54-3.11c.26-1.66-1.38-3.47-3-3a5,5,0,0,1,.36-3.54l-15.32-3.42c-2-.44-4-.88-6-.28s-3.56,2.63-3,4.56c.44,1.44,2,2.59,1.74,4.07s-2.25,2.11-3.79,1.86-3.09-1-4.62-.62c1.06,1.92-1,4.45-3.18,4.44s-4-1.75-5-3.71a8.26,8.26,0,0,0,3.16-1.09,2.79,2.79,0,0,0,1.28-2.88c-.39-1.38-2.17-2.26-2-3.69l-4.74.82A21.7,21.7,0,0,0,88.78,107,4.06,4.06,0,0,0,86,105.4c-1.45,0-2.49,1.33-3.29,2.53-1.13,1.68-2.11,4.27-.43,5.4.86.57,2,.38,3,.84,1.41.7,1.7,2.51,2.27,4a8.21,8.21,0,0,0,4.1,4.42,3.88,3.88,0,0,1-5.43-1.89c-.33-.93-.31-2-.88-2.8a3.7,3.7,0,0,0-2-1.24c-3.47-1-7.2-.32-10.81-.63s-7.65-2.39-8-6a1.17,1.17,0,0,1,1.07-.36,4.53,4.53,0,0,0,1.08-3.5,1.36,1.36,0,0,0-.27-.73,1.46,1.46,0,0,0-1-.39,33.51,33.51,0,0,0-3.47,0A4.54,4.54,0,0,1,58.69,104c-1-1-1.19-2.58-2.23-3.5a5.35,5.35,0,0,0-2.1-1c-2.81-.81-5.85-1.59-8.59-.6a1,1,0,0,0-.56.38.91.91,0,0,0,0,.69c.56,2.39,3.07,4.36,2.52,6.76a18.67,18.67,0,0,1-4.92-.85,8.9,8.9,0,0,0-.94-3.71,2.51,2.51,0,0,0-.44-.67,2.05,2.05,0,0,0-2.66.1,6,6,0,0,0-1.51,2.47,7,7,0,0,1,3.24,2.33C41.18,107.61,41.1,109.35,39.84,109.83Z"/><path class="cls-3" d="M108.35,90.6a11.91,11.91,0,0,1-.53,1.79c-.62,1.21-2.12,1.58-3.24,2.34a5,5,0,0,0-2.12,4.67,29.68,29.68,0,0,1,5.85,2.52,3.85,3.85,0,0,1,2.22,2.46l3.85-.73a.53.53,0,0,0,.53-.67c-.12-1.38-1.12-2.54-1.4-3.89a7.86,7.86,0,0,1,0-2.22l.49-5.44c.13-1.51,0-4-2-3.78A5.07,5.07,0,0,0,108.35,90.6Z"/><path class="cls-3" d="M211.77,114.76a4.36,4.36,0,0,0-1.71.51c-1.3.83-1.53,2.93-3,3.41-.62.2-1.31,0-1.92.28a1.68,1.68,0,0,0-.91,2.16,4.45,4.45,0,0,0,1.32,1.38,6.13,6.13,0,0,1,2,3.43c.1.53.18,1.14.63,1.43a1.65,1.65,0,0,0,.76.2,4.61,4.61,0,0,0,3.4-.51,10.25,10.25,0,0,0,1.4-1.79c1.21-1.47,3.24-1.92,5.13-2.13a1.6,1.6,0,0,0,.81-.24c.62-.45.3-1.42-.08-2.09-1-1.79-1.91-4.4-3.3-5.9C215.27,113.8,213.12,114.42,211.77,114.76Z"/><path class="cls-3" d="M251.23,118.24c-.24,2-.22,4.21-1.21,6a21.37,21.37,0,0,1-2.65,3.23,13.29,13.29,0,0,0-3,10.22l9.24.48a21.17,21.17,0,0,0,.87,7.63,17.05,17.05,0,0,0-6.49,7.3,38.23,38.23,0,0,0-15.7,10.23c2.76,2.17.59,6.67-2.13,8.89s-6.27,4.64-5.93,8.14c.27,2.86,3.38,4.81,6.26,4.72s5.48-1.67,7.77-3.43a45.83,45.83,0,0,0,7.82-7.68c1.05-1.32,2.5-2.86,4.1-2.35a4.06,4.06,0,0,1,1.91,1.78l6.06,8.86a12.38,12.38,0,0,0-2.65-13,13.15,13.15,0,0,1,9.34,14,4.89,4.89,0,0,0,5.4-5.3l7.43,10.21,3.18-2.69a4.58,4.58,0,0,1,.68,6.55,61.06,61.06,0,0,0-18.78,2.25,22.79,22.79,0,0,0-13.07-4.22l-1.4-3.79c-7-2.57-15,.16-20.65,5s-9.4,11.44-13,17.92a14.64,14.64,0,0,0-1.74,4c-.82,3.59,1.06,7.19,2.87,10.39s3.79,6.65,6.74,9,7.23,3.42,10.55,1.64c1.32-.7,2.48-1.83,4-2a6.73,6.73,0,0,1,3.55.87l10.07,4.57a59.77,59.77,0,0,1,.52,22.62,31.6,31.6,0,0,0-.78,6.77,24.88,24.88,0,0,0,1.32,6.06l4.61,15.07a4.56,4.56,0,0,0,5.86,4c4.73-.27,9.6-.58,13.89-2.61s7.9-6.24,7.76-11c-.13-4.46-3.3-9.45-.53-12.94,1.29-1.63,3.49-2.24,5-3.66,4.84-4.59-.36-12.93,1.63-19.3,2.3-7.37,13.83-11,12.34-18.56-.22-1.14-.76-2.3-.45-3.42a4.8,4.8,0,0,1,2.28-2.43l9.65-6.29a16,16,0,0,1-6.33-17.76c-1.38,2.3,1.39,5,4,5.54s5.61.09,7.8,1.63a15.74,15.74,0,0,1,3,3.6c3.79,5,10.25,6.91,16.27,8.57a15.81,15.81,0,0,0,1.86,16c1.28,1.64,3.41,3.12,5.32,2.29s2.27-3.27,2.6-5.31a28.89,28.89,0,0,1,13-19.5l9.49,29.58c.87,2.7,1.79,5.49,3.71,7.58s5.15,3.26,7.68,2c-4.17-5.6-7.89-12.8-5.35-19.31a21.3,21.3,0,0,1,2.64-4.51,141,141,0,0,1,22.47-24.78c1.28-1.11,2.7-2.44,2.68-4.14,0-2.49-2.9-3.76-4.54-5.64-2.65-3-1.4-8.53,2.3-10.12a34.19,34.19,0,0,0,8.37,12.88c1.76-1.52.68-4.33.38-6.64-.85-6.46,5.45-11.28,10.55-15.35s9.94-11.33,6-16.54a15.32,15.32,0,0,0-11.62-3.43,35.6,35.6,0,0,1,28.66-13.15c6.55.24,14.39,1.84,18.6-3.18a16.48,16.48,0,0,0-2.39,8,70.17,70.17,0,0,0,27.15-27.76A52.31,52.31,0,0,0,463.9,99.85L462,103.62A12.13,12.13,0,0,1,449,96.43c-3.7,3-9.17,1.09-13.31-1.22s-8.85-5.06-13.3-3.44c-2.1.76-3.76,2.41-5.77,3.4s-4.83,1.09-6.08-.77c1.05-2.75-.95-5.91-3.61-7.17s-5.75-1.14-8.69-1L378,87.34c.22-3.41,3.21-5.85,5.33-8.53s3.12-7.26.21-9c-1.79-1.09-4.07-.46-6.05.2l-15.89,5.25c-4.62,1.53-10.36,5.66-7.91,9.86l-9.56,2.32a9.22,9.22,0,0,1,2.28,11.65,7.15,7.15,0,0,0-8.9-5.52A46.79,46.79,0,0,1,339,109.38a9.37,9.37,0,0,1-1.67,5.34c-1.2,1.46-3.58,2.11-5,.89a91.06,91.06,0,0,0-.47-22.07l-4.69,0a54.43,54.43,0,0,0,.53,10.59L316.94,101c1,3.93-4.63,5.84-8.69,5.91s-9.69,2.19-8.48,6.07l-.93-4.86a24.94,24.94,0,0,1-15.12,13l-2.51-7.81c.1.31,7.74-.68,8.41-.8-1.23-7.08-12.8-15-19.9-13.72C260.51,100.41,252.32,109,251.23,118.24Z"/><path class="cls-3" d="M309.58,80.76A10.53,10.53,0,0,0,306.81,85c-.9,3.24,1.09,6.91-.3,10a1.55,1.55,0,0,0-.24,1.05,1.26,1.26,0,0,0,.69.67,19.26,19.26,0,0,0,5.69,2.08A16.51,16.51,0,0,1,316.46,89c2-2.42,4.77-4.3,6.11-7.14.83-1.76,1.13-3.88,2.59-5.17,2-1.77,4-2.57,2.58-5.77-1.31-3-2.25-1.77-5.09-.19A54.3,54.3,0,0,0,309.58,80.76Z"/><path class="cls-3" d="M228.16,154.42a1.18,1.18,0,0,0,.84.27,18.62,18.62,0,0,0,6.86-1.48,2.45,2.45,0,0,0,1.36-.85,2.39,2.39,0,0,0,.25-1.3c0-2.77-.24-13.77-5-9.19C231.5,142.8,227.75,154,228.16,154.42Z"/><path class="cls-3" d="M298.86,261.52c-.57,1.17-.46,2.65-1.29,3.66-1.3,1.6-4.43,1.4-4.95,3.4a3.6,3.6,0,0,0,.05,1.53,32.41,32.41,0,0,0,4.35,11,34.87,34.87,0,0,0,7.19-13.65c.49-1.86,1.42-5.89-.07-7.54S299.94,259.33,298.86,261.52Z"/><path class="cls-3" d="M386.12,234.93a4,4,0,0,0-1.15,1.71c-.36,1.44.8,2.79,1.94,3.73s2.48,2,2.61,3.44l6.83-1.49a9.2,9.2,0,0,0,3-1c4.08-2.58,2.35-9.06-1.16-11.33C393.91,227.14,389.09,231.88,386.12,234.93Z"/><path class="cls-3" d="M399.29,222.58a4.72,4.72,0,0,0,.76,1.56c1,1.39,3,2.51,2.63,4.2,1.72-.75,2.38-2.86,2.41-4.74s-.36-3.78.09-5.6c.6-2.4-.3-5.38-3.41-3.91C399.41,215.22,398.66,220.45,399.29,222.58Z"/><path class="cls-3" d="M425.3,176.07c0,.49.14,1,.15,1.45a8.13,8.13,0,0,1-.38,2.29,24,24,0,0,1-2.16,6,8.1,8.1,0,0,1-4.79,4,8.62,8.62,0,0,0-1.74.48c-1.91.94-1.84,3.65-1.49,5.76,1.2.42,2.27-.84,2.95-1.92,1.6-2.54,3.53-5.06,6.28-6.27,1-.43,2-.68,3-1.16a6.73,6.73,0,0,0,3.53-6.4c-.14-1.65-.88-3.24-.77-4.93.1-1.33,1.79-2.63.9-3.95C428.6,168.17,425.15,174,425.3,176.07Z"/><path class="cls-3" d="M427.08,253.73c2.25-.09,4.64-.6,6.65.42,2.65,1.36,5.29,1.7,5-2.35-.21-2.58-3-4.69-4.8-6.22-3.31-2.79-7.91-6.24-12.4-6.59-3.65-.29-7.73,2.89-5,6.17.5.59,2.33.52,3.08,1.21,1.39,1.27.95,2.57,1.72,3.95C422.66,252.79,423.94,253.87,427.08,253.73Z"/><path class="cls-3" d="M419.94,256.49a4,4,0,0,0-4.3,1.91,6.21,6.21,0,0,1-1.18,2.07c-1.29,1-3.18-.15-4.83,0-2.9.26-3.72,4.21-6,6-1.92,1.44-4.65,1.23-6.72,2.43-3.43,2-3.7,6.76-3.55,10.72l.39,10.17a2.8,2.8,0,0,0,.58,1.95,2.43,2.43,0,0,0,2.71,0c3.7-1.85,6.25-6.69,10.36-6.2,1.21.14,2.3.77,3.49,1,2.76.55,5.52-1,8.33-1,4,.06,7.31,3.48,8.39,7.31.51,1.81.67,3.85,1.93,5.25a5.44,5.44,0,0,0,5.68,1.15,12,12,0,0,0,4.88-3.59,21,21,0,0,0,5.57-10.76c.61-4-.61-8.51-3.73-11.17-1.65-1.41-3.76-2.28-5.19-3.92-1.64-1.88-2.13-4.48-3.32-6.67s-3.81-4.1-6.06-3a14,14,0,0,0-1,5.35C421.71,267,424.78,257.65,419.94,256.49Z"/><path class="cls-3" d="M468.82,296.2c.47,2.92-1.51,5.63-3.48,7.84s-4.19,4.58-4.33,7.54a2.64,2.64,0,0,0,1.33,2.71,2.41,2.41,0,0,0,1.87-.19c3.36-1.6,3.64-6.76,6.92-8.53,4.11-2.23,8.46-3.18,4.26-8.8-2.28-3.06-5.12-4.15-6.53-8C465.9,290.28,468.45,293.93,468.82,296.2Z"/><path class="cls-3" d="M436.12,302.72a2.57,2.57,0,0,0-1-.35,3.59,3.59,0,0,0-3.45,2,10.38,10.38,0,0,0-.93,4.13c0,.31,0,.68.25.83a.74.74,0,0,0,.39.05l3.42-.1c1.09,0,2.37-.16,2.93-1.09,1.12-1.84-1.83-3.89-1.48-6"/><line class="cls-4" x1="73.22" y1="18.09" x2="73.22" y2="371.91"/><line class="cls-4" x1="126.44" y1="18.09" x2="126.44" y2="371.91"/><line class="cls-4" x1="179.67" y1="18.09" x2="179.67" y2="371.91"/><line class="cls-4" x1="232.89" y1="18.09" x2="232.89" y2="371.91"/><line class="cls-4" x1="286.11" y1="18.09" x2="286.11" y2="371.91"/><line class="cls-4" x1="339.33" y1="18.09" x2="339.33" y2="371.91"/><line class="cls-4" x1="392.56" y1="18.09" x2="392.56" y2="371.91"/><line class="cls-4" x1="445.78" y1="18.09" x2="445.78" y2="371.91"/><line class="cls-4" x1="499" y1="88.85" x2="20" y2="88.85"/><line class="cls-4" x1="499" y1="159.62" x2="20" y2="159.62"/><line class="cls-4" x1="499" y1="230.38" x2="20" y2="230.38"/><line class="cls-4" x1="499" y1="301.15" x2="20" y2="301.15"/></g></svg>