<svg xmlns="http://www.w3.org/2000/svg" width="20" height="20" viewBox="0 0 16 16" fill="currentColor"><path d="M14.13 3.657a5.294 5.294 0 01-1.649.472 3.14 3.14 0 001.3-1.593 5.338 5.338 0 01-1.825.708A2.847 2.847 0 009.832 2.3a2.893 2.893 0 00-2.885 2.891 2.217 2.217 0 00.059.649A8.124 8.124 0 011 2.772a2.668 2.668 0 00-.411 1.475 2.964 2.964 0 001.3 2.419 2.37 2.37 0 01-1.3-.354v.059A2.86 2.86 0 002.885 9.2a2.977 2.977 0 01-.765.118 1.627 1.627 0 01-.53-.059 2.792 2.792 0 002.71 2.01 5.881 5.881 0 01-3.593 1.239A2.86 2.86 0 010 12.449a8.228 8.228 0 004.416 1.3 8.178 8.178 0 008.243-8.261v-.356a6.984 6.984 0 001.471-1.475z"/></svg>